<?xml version="1.0" standalone="no"?>
<!DOCTYPE svg PUBLIC "-//W3C//DTD SVG 1.1//EN" "http://www.w3.org/Graphics/SVG/1.1/DTD/svg11.dtd" >
<!--
2013-9-30: Created.
-->
<svg>
<metadata>
Created by iconfont
</metadata>
<defs>

<font id="iconfont" horiz-adv-x="1024" >
  <font-face
    font-family="iconfont"
    font-weight="500"
    font-stretch="normal"
    units-per-em="1024"
    ascent="896"
    descent="-128"
  />
    <missing-glyph />
    
    <glyph glyph-name="addressfill" unicode="&#58925;" d="M895.904 448c0 212.064-171.936 384-384 384-212.064 0-384-171.936-384-384 0-104.672 42.016-199.456 109.92-268.736L237.664 179.264l1.568-1.568c0.768-0.768 1.536-1.568 2.336-2.336l217.12-217.12c29.376-29.376 76.992-29.376 106.368 0l217.12 217.12c0.768 0.768 1.568 1.536 2.336 2.336l1.568 1.568-0.16 0C853.888 248.544 895.904 343.328 895.904 448zM512 320c-70.688 0-128 57.312-128 128s57.312 128 128 128 128-57.312 128-128S582.688 320 512 320z"  horiz-adv-x="1024" />

    
    <glyph glyph-name="nas" unicode="&#58986;" d="M928.658561 544.27431H694.937472c-25.567305 23.786753-55.553247 47.572482-79.338976 71.574129a28.637224 28.637224 0 0 1-23.26589 8.962115c-1.073448 0-2.14792 0.184195-3.190668 0.184196H98.555643c-1.934049 0-3.529383-0.184195-5.279236-0.337691-15.346523-0.36839-30.323633-11.110035-30.323633-32.257682v-435.062723c0-3.529383 0.521886-6.874571 1.227967-9.883092 1.412163-14.273075 11.294231-27.501354 29.771048-27.501354h160.981414a87.167269 87.167269 0 0 1 119.699196-72.433706 210.054063 210.054063 0 0 1 133.050272-48.00227 211.042577 211.042577 0 0 1 133.081995 47.940872A87.165222 87.165222 0 0 1 760.464885 119.89081l160.581302 0.030699c17.494443-3.530406 37.750789 7.058766 37.750789 32.072463V511.464043c0.153496 21.515013-15.007809 32.625048-30.170137 32.810267h0.031722zM341.668637 165.440216c20.963451 0 37.352723-16.389272 37.352723-37.383423 0-20.962427-16.389272-37.3517-37.352723-37.351699a36.950564 36.950564 0 0 0-37.383422 37.351699c0.001023 20.99415 16.390295 37.383422 37.383422 37.383423z m332.09049 0c20.993127 0 37.382399-16.389272 37.382399-37.383423 0-20.962427-16.389272-37.3517-37.382399-37.351699a36.95568 36.95568 0 0 0-37.352723 37.351699c0 20.99415 16.57449 37.383422 37.352723 37.383423zM432.794054 354.227929a86.615707 86.615707 0 0 1 75.104535-43.36874c30.845519 0 59.236126 16.57449 75.072812 43.36874 52.41886-26.761504 85.833901-80.222089 86.920652-139.067312-46.484707-2.228761-83.026972-40.566928-83.021855-87.104847 0-17.095353 5.279237-33.853016 15.346523-48.493457a162.480558 162.480558 0 0 0-94.163613-30.478152 162.051793 162.051793 0 0 0-94.133937 30.508851c10.067286 14.608719 15.346523 31.18321 15.346523 48.493457 0 46.683229-36.830837 84.955904-83.021855 87.074148 0.762363 58.839083 34.096563 112.399953 86.550215 139.067312z m37.536918 43.736107c0 20.963451 16.389272 37.352723 37.382398 37.352723 20.963451 0 37.383422-16.389272 37.383422-37.352723 0-20.993127-16.420995-37.382399-37.383422-37.382398a36.951587 36.951587 0 0 0-37.382398 37.382398z m272.025486-216.472239a90.806145 90.806145 0 0 1-23.294542 20.778232c0.183172 2.824325 0.36839 5.463432 0.36839 8.809643 0.217964 83.474157-48.976458 159.170163-125.347846 192.869682-2.898003 45.578058-40.697911 81.06734-86.368066 81.08883-45.669132-0.021489-83.470063-35.511795-86.368067-81.08883-76.419484-33.642215-125.638465-109.374036-125.347846-192.869682v-9.330506a90.540086 90.540086 0 0 1-22.405289-20.103874 27.368324 27.368324 0 0 1-5.463432 0.552586H125.165698V562.966021H581.221548c23.970948-22.405289 70.500681-62.920028 83.176374-74.060763 3.743254-4.052293 8.500605-6.691399 14.671141-6.691399h218.037898v-300.2012H749.047858a41.003879 41.003879 0 0 1-6.6914-0.520862zM98.371448 670.665929H630.237915l73.323982-73.354682c2.454912-2.454912 5.125741-4.38896 7.918343-5.8001 3.713578-5.831822 9.361205-9.698896 16.941858-9.698896h207.817116c30.170137 0 30.170137 62.244646 0 62.244646H744.812393l-79.860862 79.800488a28.639271 28.639271 0 0 1-23.26589 8.992815c-1.043772 0-2.118244 0.184195-3.160993 0.184195H98.217952c-40.912805-0.156566-40.912805-62.368466 0.153496-62.368466z"  horiz-adv-x="1024" />

    
    <glyph glyph-name="star" unicode="&#58987;" d="M213.963093 200.757582c0 8.563026-1.700735 16.624632-4.345981 24.305569L237.419318 238.69666l-7.713682 15.71082-27.54945-13.507642a74.780147 74.780147 0 0 1-51.951209 33.816177v60.262502h-17.505699v-59.759036c-40.424688-2.827395-71.26202-37.304627-69.582775-77.791737 1.679245-40.489156 35.266202-72.29249 75.786057-71.76344a74.616418 74.616418 0 0 1 57.712423 27.581172l42.442648-20.780279 7.68196 15.742542-40.520879 19.836791a74.294077 74.294077 0 0 1 7.776104 32.713052h-0.031723z m-81.263815 295.774377v-60.010768h17.505699v60.545957a74.870198 74.870198 0 0 1 50.565653 31.486109l28.965705-14.168698 7.682983 15.71082-28.620851 14.010085c3.243881 8.374738 5.195326 17.379832 5.195325 26.920117 0 8.91095-1.825578 17.317411-4.690835 25.283849l37.43561 18.324344-7.713682 15.742543-37.341466-18.324344a74.93569 74.93569 0 0 1-62.781882 34.098609 75.123978 75.123978 0 0 1-75.123978-75.125001c0-39.356356 30.382984-71.282486 68.921719-74.493622z m677.283394 74.493622c0-10.483772 2.139733-20.434401 5.982248-29.470196l-26.384927-12.909007 7.713682-15.742543 27.611871 13.539365c12.153808-16.372899 30.730908-27.39186 52.077076-29.721929v-58.721403h17.505699v58.877969c37.4571 4.620227 65.61337 36.407188 65.678862 74.147744 0.026606 33.045627-21.551852 62.22418-53.155641 71.87805-31.602765 9.653871-65.803705-2.487657-84.246753-29.90817l-33.122375 16.247033-7.713682-15.743566 33.029254-16.182564c-3.086291-8.18645-5.007037-17.002232-5.007037-26.290783h0.031723z m-305.661562-260.980943v-7.461949h17.538445v7.430226a74.689073 74.689073 0 0 1 54.784744 34.413788l43.606147-21.378913 7.682983 15.742542-43.890626 21.50478a74.338079 74.338079 0 0 1 4.282536 23.927969c0 8.500605-1.732457 16.562211-4.345981 24.212448l43.985794 21.536502-7.68196 15.742543-43.764759-21.409613a74.717725 74.717725 0 0 1-54.658878 34.161031v3.462868h-17.538445v-3.462868a74.841545 74.841545 0 0 1-53.713342-32.80822L406.717142 447.162552l-7.682983-15.742543 43.890626-21.47408a74.460876 74.460876 0 0 1-4.817726-25.723872c0-8.972349 1.826602-17.473977 4.722559-25.439392l-43.76476-21.473057 7.682983-15.711843 43.764759 21.441334c11.870352-18.041912 31.327496-30.320563 53.840233-32.996508h-0.031723v0.002047z m0-109.034299h17.505699v-72.385611h-17.505699v72.385611z m0 86.961584h17.505699v-72.384587h-17.505699v72.384587z m0 260.920568h17.505699v-72.385611h-17.505699v72.385611z m0 86.962607h17.505699v-72.38561h-17.505699v72.38561z m-371.621832-213.911927h17.505699v-72.385611h-17.505699v72.385611z m744.283344 1.447978h17.505699v-72.384587h-17.505699v72.384587zM242.834654 260.831796l65.017806 31.863708 7.682983-15.742542-64.986083-31.831986-7.714706 15.71082z m78.05268 38.255279l65.017806 31.800263 7.712659-15.711843-65.016782-31.800263-7.713683 15.711843z m377.51096 184.913477l7.68196-15.742543-64.985061-31.831986-7.713682 15.742543 65.016783 31.831986z m13.097296 6.359848l7.682983-15.742543 65.016783 31.863708-7.713683 15.742543-64.986083-31.863708zM894.489344 282.084842v54.344723h-17.505699v-54.187133a74.583672 74.583672 0 0 1-56.987922-37.498033l-22.701025 11.113106-7.713682-15.742543 23.613814-11.555174a74.337055 74.337055 0 0 1-3.243881-20.623713c0-15.742543 4.91187-30.382984 13.22521-42.47437l-31.895431-15.616676 7.713682-15.742542 36.428677 17.883299c13.255908-11.776208 30.540573-19.142989 49.621141-19.142989a75.090209 75.090209 0 0 1 75.125001 75.092255c-0.067538 37.742603-28.222785 69.529563-65.679885 74.14979zM307.790038 476.097558l7.712659 15.742542-64.98506 31.800264-7.713682-15.71082 64.986083-31.831986z m85.860507-22.512737l-7.682983-15.742542-65.017806 31.831986 7.682983 15.742542 65.017806-31.831986z m312.429709-153.08149l-65.016783 31.863708-7.682983-15.743566 64.98506-31.831986 7.714706 15.711844z m78.083379-38.222533l-64.98506 31.800263-7.682983-15.711843 64.98506-31.800264 7.682983 15.711844z m-85.765339 411.640268l-64.986083 31.831985-7.713683-15.742542 65.017806-31.800264 7.68196 15.710821z m78.115102-38.255279l-64.986084 31.800263-7.713682-15.711843 64.986084-31.800264 7.713682 15.711844zM252.154927 126.042927l64.98506-31.800264 7.713682 15.711844-64.98506 31.79924-7.713682-15.71082z m78.115102-38.254256l65.017806-31.831986 7.712659 15.742543-65.016783 31.800263-7.713682-15.71082z m-5.415336 565.099359l-7.713683 15.742542-65.016782-31.831985 7.712659-15.742543 65.017806 31.831986z m70.433142 53.997821l7.681959-15.742542-65.017805-31.800264-7.68196 15.711844 65.017806 31.830962z m20.748556-9.320272l36.806278 18.009165c11.965519-16.308431 30.352285-27.392884 51.478441-29.91124v-35.199686h17.538445v35.168987a74.620511 74.620511 0 0 1 51.698453 29.91124l39.042201-19.11229 7.713682 15.742543-37.877679 18.545378c13.214976 31.42164 3.607154 67.803245-23.399943 88.602967-27.007097 20.800745-64.634066 20.800745-91.641163 0-27.007097-20.799722-36.614919-57.181327-23.399943-88.602967l-35.641755-17.443277 7.682983-15.71082z m205.91479-630.684077l-42.820248-20.937868a74.618465 74.618465 0 0 1-57.3031 38.978757v29.124317h-17.505699v-29.15604a74.652234 74.652234 0 0 1-55.319933-35.767621l-32.901341 16.120142-7.713683-15.711843 33.499976-16.403599a74.297147 74.297147 0 0 1-3.778047-22.449291c0-41.472554 33.620725-75.092255 75.092255-75.092255 41.473577 0 75.092255 33.619702 75.092256 75.092255 0 6.580882-1.101077 12.846586-2.675946 18.922978l44.016493 21.567202-7.68196 15.742542v-0.029676h-0.001023z m13.097296 6.423293l7.713682-15.711843 64.98506 31.862685-7.712658 15.71082-64.986084-31.861662z m78.084403 38.287002l7.745405-15.743566 65.017805 31.863708-7.745404 15.742543-65.017806-31.862685z"  horiz-adv-x="1024" />

    
    <glyph glyph-name="extra-topology-o" unicode="&#58989;" d="M849.103668 228.701005v79.3093c0 51.331086-38.71065 90.041736-90.041736 90.041736H544.809243v68.880787h140.110062c51.336202 0 90.050945 38.71065 90.050945 90.043782V722.958922c0 51.334155-38.714743 90.044806-90.050945 90.044805h-349.663728c-51.335179 0-90.045829-38.71065-90.045829-90.044805v-165.982312c0-51.333132 38.71065-90.043782 90.045829-90.043782h140.114154v-68.880787H261.118066c-51.333132 0-90.041736-38.71065-90.041736-90.041736v-79.3093c-63.292512-13.419637-110.653169-65.775053-110.653169-128.169102 0-72.529897 63.971987-131.539872 142.603859-131.539872s142.602835 59.009975 142.602835 131.539872c0 60.566424-44.61922 111.672382-105.119129 126.897132v80.58127c0 12.712533 7.896854 20.606317 20.60734 20.606317h214.251665v-100.508112c-61.902862-14.338566-107.883079-66.091254-107.883079-127.576607 0-72.529897 63.971987-131.539872 142.602835-131.539872 78.633918 0 142.603859 59.009975 142.603859 131.539872 0 61.485353-45.976124 113.238041-107.884103 127.576607v100.508112H759.061932c12.712533 0 20.61041-7.893784 20.61041-20.606317v-80.58127c-60.501956-15.22475-105.123222-66.330708-105.123222-126.897132 0-72.529897 63.96994-131.539872 142.603858-131.539872 78.633918 0 142.603859 59.009975 142.603859 131.539872 0 62.394049-47.358611 114.749464-110.653169 128.169102z m-31.95069-190.274578c-40.345893 0-73.16844 27.858488-73.16844 62.105476s32.822546 62.105476 73.16844 62.105477c40.345893 0 73.173556-27.858488 73.173557-62.105477s-32.827663-62.105476-73.173557-62.105476zM314.64926 722.958922c0 12.712533 7.896854 20.609387 20.606317 20.609387h349.663728c12.712533 0 20.611433-7.896854 20.611433-20.609387v-165.982312c0-12.71151-7.898901-20.608364-20.611433-20.608364h-349.663728c-12.709463 0-20.606317 7.896854-20.606317 20.608364V722.958922z m-111.62224-684.532495c-40.345893 0-73.16844 27.858488-73.16844 62.105476s32.822546 62.105476 73.16844 62.105477c40.34487 0 73.16844-27.858488 73.168439-62.105477s-32.82357-62.105476-73.168439-62.105476z m307.062467 0c-40.34487 0-73.16844 27.858488-73.168439 62.105476s32.82357 62.105476 73.168439 62.105477c40.345893 0 73.16844-27.858488 73.16844-62.105477 0.001023-34.246989-32.822546-62.105476-73.16844-62.105476z"  horiz-adv-x="1024" />

    
    <glyph glyph-name="operation" unicode="&#59005;" d="M914.766157 475.901083l-86.017073 17.2335c-4.335748 12.429077-9.405207 24.482601-15.041578 36.152384l48.691979 73.024154c14.856359 22.239514 11.894911 51.870368-7.015787 70.771857l-53.982472 53.955866c-10.853186 10.847046-25.205055 16.433274-39.709397 16.433274a55.971779 55.971779 0 0 1-31.103392-9.425673l-73.056899-48.67049c-11.700483 5.66707-23.754007 10.708899-36.194341 15.036461l-17.206893 85.978187c-5.233188 26.241664-28.279067 45.107337-55.023175 45.107337h-76.347852c-26.742061 0-49.786916-18.865673-55.016011-45.109383l-17.240663-85.978187c-12.434194-4.326539-24.496927-9.397021-36.170804-15.036462l-73.045643 48.67049a56.04648 56.04648 0 0 1-31.109532 9.425673c-14.496156 0-28.856211-5.589298-39.699164-16.433274l-53.988611-53.955866c-18.899442-18.899442-21.856797-48.533366-7.015788-70.771857l48.700166-73.024153c-5.676279-11.69332-10.722202-23.743774-15.048741-36.183084L107.111506 475.899036c-26.243711-5.231141-45.128827-28.264741-45.128826-54.996568v-76.30999c0-26.732851 18.884093-49.76645 45.128826-54.998615l86.01298-17.227359c4.326539-12.43624 9.405207-24.482601 15.048741-36.154432l-48.700166-73.02006c-14.84408-22.239514-11.885701-51.874461 7.015788-70.771857l53.990658-53.960982c10.843976-10.840906 25.205055-16.432251 39.699164-16.432251a56.012711 56.012711 0 0 1 31.109532 9.423627l73.045643 48.670489a337.371774 337.371774 0 0 1 36.196387-15.038508l17.21508-85.978187c5.233188-26.237571 28.272927-45.109384 55.016011-45.109384h76.347852c26.745131 0 49.793056 18.871813 55.024198 45.109384l17.230429 85.978187c12.446473 4.329609 24.499997 9.392928 36.170805 15.038508l73.056899-48.670489c9.512654-6.326079 20.332071-9.423627 31.103392-9.423627 14.506389 0 28.856211 5.589298 39.709397 16.432251l53.982472 53.960982c18.909675 18.896372 21.872147 48.533366 7.015787 70.771857l-48.691979 73.02006c5.66707 11.69332 10.707876 23.746844 15.040555 36.185131l86.017072 17.197684c26.247804 5.233188 45.124733 28.266787 45.124734 54.998615v76.309989c-0.005117 26.732851-18.883069 49.76952-45.12678 54.997592zM817.728076 327.396841a56.086389 56.086389 0 0 1-41.97602-36.5658 279.391245 279.391245 0 0 0-12.55085-30.153764 55.997362 55.997362 0 0 1 3.812838-55.573713l48.693003-73.024154-53.984519-53.954842-73.053829 48.670489a56.092529 56.092529 0 0 1-31.132045 9.423627c-8.329712 0-16.677844-1.862417-24.436552-5.588275-9.732665-4.710278-19.790742-8.952906-30.166043-12.571317a56.041364 56.041364 0 0 1-36.58422-41.961694l-17.240663-85.999676H472.761324l-17.199731 85.999676c-3.891633 19.475564-17.818831 35.444257-36.58422 41.961694a281.310967 281.310967 0 0 0-30.169113 12.542664 56.17337 56.17337 0 0 1-24.474414 5.615904 56.082296 56.082296 0 0 1-31.126928-9.423626l-73.0569-48.67049-53.973262 53.955866 48.687886 73.024154a56.146764 56.146764 0 0 1 3.832281 55.543014c-4.702092 9.725502-8.952906 19.775392-12.568246 30.153763a56.072063 56.072063 0 0 1-41.984207 36.565801l-86.017072 17.22736-0.0307 76.309989 86.046749 17.197684a56.097646 56.097646 0 0 1 41.984206 36.567847 281.757129 281.757129 0 0 0 12.545734 30.156834 56.005548 56.005548 0 0 1-3.810792 55.57269l-48.687885 73.018014 53.973262 53.957912L333.202824 638.707053a56.115042 56.115042 0 0 1 31.127952-9.423627c8.334829 0 16.687054 1.862417 24.445762 5.588275 9.727549 4.712325 19.781532 8.955976 30.169113 12.570293 18.770506 6.52153 32.69361 22.48613 36.58422 41.961694l17.23043 85.978187 76.347852 0.024559 17.207917-86.001722a56.072063 56.072063 0 0 1 36.58422-41.961694 280.876062 280.876062 0 0 0 30.166043-12.542664 56.166207 56.166207 0 0 1 24.467251-5.615905 56.106856 56.106856 0 0 1 31.132045 9.423627l73.053829 48.670489 53.984519-53.957912-48.693002-73.018014a56.139601 56.139601 0 0 1-3.835352-55.546084c4.705162-9.719362 8.955976-19.775392 12.573363-30.153763a56.084343 56.084343 0 0 1 41.97602-36.567847l86.020143-17.22429 0.030699-76.30999-86.049818-17.197684 0.002046-0.00614zM510.941901 579.080024c-108.460224 0-196.423625-87.920422-196.423624-196.327434 0-108.409059 87.965447-196.329481 196.423624-196.329481 108.458177 0 196.419532 87.920422 196.419532 196.329481-0.00307 108.407012-87.964424 196.327434-196.419532 196.327434z m0-368.114962c-94.895277 0-171.870416 76.939323-171.870415 171.788551 0 94.852298 76.974116 171.788551 171.870415 171.788551s171.862229-76.937277 171.86223-171.788551c0-94.850252-76.966952-171.788551-171.86223-171.788551z m0 283.971563c-62.017472 0-112.242364-50.202379-112.242363-112.186082S448.925453 270.562415 510.941901 270.562415c62.008262 0 112.232131 50.207495 112.232131 112.188128s-50.221822 112.186082-112.232131 112.186082z m0-196.328457c-46.472428 0-84.181261 37.690414-84.181261 84.144422 0 46.450938 37.709857 84.139306 84.181261 84.139305 46.468334 0 84.181261-37.686321 84.181261-84.139305-0.00307-46.456055-37.712927-84.144422-84.181261-84.144422z"  horiz-adv-x="1024" />

    
    <glyph glyph-name="agree-logo" unicode="&#59226;" d="M1099.634157 815.726707a44.535183 44.535183 0 0 0-28.920378-14.295244 20.673122 20.673122 0 0 1 4.948353-1.099635 48.93372 48.93372 0 0 0 20.453196-9.017c13.965354-10.996342 18.913707-167.804172 19.02367-167.804172 1.429524 13.745427 4.288573 150.210026 12.755757 160.65655a42.006025 42.006025 0 0 0 7.367549 7.147622 48.823757 48.823757 0 0 0 23.862061 9.566817 21.222939 21.222939 0 0 1-4.5085 1.429525 46.514525 46.514525 0 0 0-20.453196 8.797073c-14.295244 10.996342-18.36389 67.627501-20.123305 84.891757 0.439854 0-3.408866-66.63783-14.405207-80.273293zM991.979973 600.8581919999999l373.875613-615.025384c38.597159-63.338927 32.109317-73.235635-31.449537-73.345598-130.856465 0-393.339138-0.549817-481.969651 0-83.572196 15.834732-147.021087 77.854098-177.700879 113.922099-10.996342 12.86572-16.604476 24.411878-8.247257 40.796427l187.817514 222.675917c43.985366 52.232622 72.685818 51.682805 106.004733-1.209598L1166.38195-38.689032999999995c10.006671-14.625134 24.521842-13.415537 39.806757-13.415537h61.469549c20.783086 0 25.951366 18.36389 15.284915 34.968366L972.516448 464.393593c-40.466537 62.679147-67.29761 71.47622-122.939098 8.137293L373.875613-72.777692c-13.965354-16.054659 0.549817-26.06133 16.274586-30.679793a115.791477 115.791477 0 0 1 73.565525 1.429524C505.831712-88.06260699999996 554.875396-55.29350899999997 593.802445-23.843972000000008c6.267915 5.168281 12.095976 7.367549 18.473854 0.769744 97.427586-98.967074 189.796855-100.506562 189.796855-100.506562H1451.517087c45.085 6.157951 57.180976 47.504196 35.40822 84.561866L989.670741 806.269853C942.056582 886.763073 914.345801 876.976329 859.144167 811.32817L349.243808 205.539713s-114.471916 34.748439-213.76888-0.769744C9.236927 159.24511500000006-63.228964-12.077887000000032 74.775123-101.91799700000001c115.021733-74.885086 211.789539 27.270927 280.626637 107.764147 73.565525 86.101354 182.53927 218.60727 182.53927 218.60727l316.254783 381.463089c60.369915 72.795781 78.513879 92.369269 137.894123-5.16828zM278.427369 113.50033399999995l-74.775123-90.829781C164.285343-25.053570000000036 109.963416-84.87366799999995 43.985366-21.09488699999997c-48.713793 59.380244 9.566817 121.619538 65.97805 144.162038 58.720464 23.312244 141.632879 33.648805 167.584245 17.264256 13.635464-8.35722 9.126964-16.824403 0.879708-26.831073z"  horiz-adv-x="1497" />

    
    <glyph glyph-name="address" unicode="&#58988;" d="M505.344 896C332.288 896 192 755.712 192 580.096c0-173.056 169.984-391.68 315.904-569.856 143.36 181.248 315.904 394.24 315.904 569.856C821.248 755.712 680.96 896 505.344 896z m0-524.288C389.12 371.712 296.96 466.432 296.96 580.096 296.96 696.32 391.68 787.968 504.832 787.968c116.224 0 207.872-94.72 207.872-207.872 3.072-116.224-91.136-208.384-207.36-208.384zM386.56 580.096c0-32.256 13.312-61.952 35.328-83.968C443.392 474.624 476.16 460.8 505.856 460.8c32.256 0 61.952 13.312 83.968 35.328 21.504 21.504 35.328 54.272 35.328 83.968 0 32.256-13.312 61.952-35.328 83.968-21.504 21.504-54.272 35.328-83.968 35.328-32.256 0-61.952-13.312-83.968-35.328-22.016-22.016-35.328-51.712-35.328-83.968zM507.904-128c-202.752 0-408.064 65.024-408.064 186.368 0 67.584 67.584 124.416 186.368 159.232 21.504 5.632 43.008-5.632 48.64-27.136 5.632-21.504-5.632-43.008-27.136-48.64-89.088-24.064-129.536-59.392-129.536-83.968 0-43.008 129.536-108.032 332.288-108.032s332.288 65.024 332.288 108.032c0 24.064-48.64 61.952-137.728 86.528-21.504 5.632-32.256 27.136-27.136 48.64 5.632 21.504 27.136 32.256 48.64 27.136 124.416-32.256 197.12-91.648 197.12-162.304-7.68-120.832-212.992-185.856-415.744-185.856z"  horiz-adv-x="1024" />

    
    <glyph glyph-name="password" unicode="&#59287;" d="M224 96.06399999999996v319.84l-0.256 0.096 576.256-0.096 0.256-319.904L224 96.06399999999996z m170.304 483.328A124.672 124.672 0 0 0 518.72 704 124.704 124.704 0 0 0 643.2 579.392V480H394.304v99.392zM800.256 480H707.2v99.392A188.736 188.736 0 0 1 518.72 768c-103.904 0-188.416-84.608-188.416-188.608V480h-106.56A64 64 0 0 1 160 415.904v-319.84A64 64 0 0 1 223.744 32h576.512A64 64 0 0 1 864 96.06399999999996v319.84A64 64 0 0 1 800.256 480zM512 352a32 32 0 0 1-32-32v-128a32 32 0 0 1 64 0V320a32 32 0 0 1-32 32"  horiz-adv-x="1024" />

    
    <glyph glyph-name="user" unicode="&#59288;" d="M512 64a318.432 318.432 0 0 0-215.648 84.256C351.264 166.01599999999996 443.008 192 509.952 192c68.064 0 162.048-26.976 216.608-44.704A318.24 318.24 0 0 0 512 64m0 224c-52.928 0-96 43.104-96 96.064v95.872A96.16 96.16 0 0 0 512 576c52.928 0 96-43.104 96-96.064v-95.872A96.16 96.16 0 0 0 512 288m0 416c176.448 0 320-143.552 320-320a318.016 318.016 0 0 0-59.136-184.704c-34.432 12-106.944 35.52-178.656 48.16C640.608 275.52 672 325.98400000000004 672 384.064v95.872A160.224 160.224 0 0 1 512 640c-88.224 0-160-71.808-160-160.064v-95.872C352 326.4 382.944 276.15999999999997 428.832 248c-70.656-12.16-142.464-35.104-178.528-47.584A317.952 317.952 0 0 0 192 384c0 176.448 143.552 320 320 320m0 64c-211.744 0-384-172.256-384-384s172.256-384 384-384 384 172.256 384 384-172.256 384-384 384"  horiz-adv-x="1024" />

    
    <glyph glyph-name="clock" unicode="&#59289;" d="M512 82.752c-158.784 0-288 129.216-288 288s129.216 288 288 288 288-129.216 288-288-129.216-288-288-288m0 640c-194.08 0-352-157.92-352-352 0-101.856 43.744-193.472 113.152-257.824a31.04 31.04 0 0 1-13.248-7.552l-58.528-58.56a31.968 31.968 0 1 1 45.248-45.216l58.528 58.528a31.584 31.584 0 0 1 8.832 19.84A349.664 349.664 0 0 1 512 18.752c71.328 0 137.664 21.44 193.152 58.048a31.04 31.04 0 0 1 8.224-16.672l58.528-58.56a31.904 31.904 0 0 1 45.248 0 32 32 0 0 1 0 45.28l-58.528 58.528a31.36 31.36 0 0 1-9.28 6.176C819.616 175.936 864 268.16 864 370.752c0 194.08-157.92 352-352 352M544 376.896V562.752a32 32 0 0 1-64 0v-199.104c0-8.48 3.36-16.64 9.376-22.624l107.296-107.296a31.904 31.904 0 0 1 45.248 0 32 32 0 0 1 0 45.248L544 376.896zM182.624 609.6l90.528 90.56a32 32 0 0 1-45.248 45.216l-90.528-90.528a31.968 31.968 0 1 1 45.248-45.248m701.248 58.528l-90.496 90.496a31.968 31.968 0 1 1-45.248-45.248l90.496-90.496a31.904 31.904 0 0 1 45.248 0 31.968 31.968 0 0 1 0 45.248"  horiz-adv-x="1024" />

    
    <glyph glyph-name="logkeeper-task" unicode="&#59127;" d="M242.016009 255.74211200000002h-5.122025v-57.213019h552.307954V255.74211200000002H242.016009zM781.979883 518.655655h5.122025V575.868674H234.742733v-57.213019h547.23715zM781.979883 356.492344h5.122025V415.805393H234.742733v-59.313049h547.23715zM839.602664 846.926237h-166.15849A81.9524 81.9524 0 0 1 598.406508 895.995237H423.438134A78.827965 78.827965 0 0 1 349.578533 846.926237H184.393227C122.621606 846.926237 70.428171 797.6523569999999 70.428171 739.363712v-759.801187c0-59.313049 51.22025-107.562525 113.965056-107.562525h655.209437c62.847247 0 113.965056 48.249475 113.965056 107.562525V739.363712c0 59.313049-51.117809 107.562525-113.965056 107.562525z m-711.961474-107.562525c0 26.58331 25.610125 48.198255 56.752037 48.198255h164.468223a81.9524 81.9524 0 0 1 76.830375-53.32028h174.865933a78.725524 78.725524 0 0 1 75.396208 53.32028h163.648698c31.295573 0 56.752037-21.614945 56.752037-48.198255v-759.801187c0-26.58331-25.610125-48.198255-56.752037-48.198255H184.393227c-31.295573 0-56.752037 21.614945-56.752037 48.198255zM598.406508 793.554737H423.438134a23.202773 23.202773 0 0 0-22.639351 22.63935 23.202773 23.202773 0 0 0 22.639351 22.58813h174.968374a23.202773 23.202773 0 0 0 22.63935-22.58813 23.202773 23.202773 0 0 0-22.63935-22.63935z"  horiz-adv-x="1024" />

    
    <glyph glyph-name="duibi" unicode="&#59134;" d="M578.340571 896a36.571429 36.571429 0 0 1-31.158857-17.700571H36.571429a36.571429 36.571429 0 0 1-36.571429-36.571429v-915.456a36.571429 36.571429 0 0 1 36.571429-36.571429h510.610285a36.571429 36.571429 0 0 1 67.730286 18.870858V859.428571a36.571429 36.571429 0 0 1-36.571429 36.571429zM711.972571-37.156571h58.514286v-73.142858h-58.514286zM844.214857-37.156571h117.906286v-73.142858h-117.906286zM1057.718857-37.156571h-21.942857v-73.142858h58.514286a36.571429 36.571429 0 0 1 36.571428 36.571429v58.514286h-73.142857zM1057.718857 531.090286h73.142857v-112.054857h-73.142857zM1057.718857 166.838857h73.142857v-112.054857h-73.142857zM1057.718857 348.964571h73.142857v-112.054857h-73.142857zM1057.718857 713.216h73.142857v-112.054857h-73.142857zM1094.290286 878.299429h-58.514286v-73.142858h21.942857v-21.942857h73.142857v58.514286a36.571429 36.571429 0 0 1-36.571428 36.571429zM844.214857 878.299429h117.906286v-73.142858h-117.906286zM711.972571 878.299429h58.514286v-73.142858h-58.514286z"  horiz-adv-x="1130" />

    
    <glyph glyph-name="shanchu" unicode="&#59135;" d="M400.027826 120.57971a40.811594 40.811594 0 0 1 40.811594 40.811594V557.115362a40.811594 40.811594 0 0 1-81.623188 0V161.391304a40.811594 40.811594 0 0 1 40.811594-40.811594zM638.812754 120.57971a40.811594 40.811594 0 0 1 40.811594 40.811594V557.115362a40.811594 40.811594 0 1 1-81.623189 0V161.391304a40.811594 40.811594 0 0 1 40.811595-40.811594zM1005.449275 798.274783H610.912464V881.15942a14.84058 14.84058 0 0 1-14.84058 14.84058H442.768696a14.84058 14.84058 0 0 1-14.84058-14.84058v-82.884637H33.391304a33.391304 33.391304 0 0 1 0-66.782609h94.534493V-46.376812a81.623188 81.623188 0 0 1 81.623189-81.623188h619.594202a81.623188 81.623188 0 0 1 81.623189 81.623188V731.492174h94.682898a33.391304 33.391304 0 0 1 0 66.782609z m-161.317101-787.737971H194.708406V731.492174h649.423768z"  horiz-adv-x="1038" />

    
    <glyph glyph-name="yulan" unicode="&#59136;" d="M1685.345256 409.859539a1588.568479 1588.568479 0 0 1-242.64553 241.984885C1244.506178 811.059908 1038.196132 896 847.080925 896S449.655671 811.059908 251.462123 651.844424A1588.568479 1588.568479 0 0 1 8.816593 409.859539a42.470046 42.470046 0 0 1 0-51.813456 1588.568479 1588.568479 0 0 1 242.64553-241.890507c198.193548-159.687373 404.126083-244.155576 595.618802-244.155576s397.425253 84.940092 595.618801 244.155576A1588.568479 1588.568479 0 0 1 1685.345256 358.046083a42.470046 42.470046 0 0 1 0 51.813456z m-838.264331-453.013825c-358.635945 0-667.629124 330.983226-749.549125 427.059908C179.357422 480.17106 487.501201 811.059908 847.080925 811.059908s667.534747-330.983226 749.549124-427.059908c-81.92-96.17106-389.969401-427.059908-749.549124-427.059908zM967.03521 420.618618a91.546544 91.546544 0 0 0-24.255115 179.317972A236.794101 236.794101 0 1 1 1057.071708 493.667097a91.640922 91.640922 0 0 0-90.036498-73.048479z"  horiz-adv-x="1694" />

    
    <glyph glyph-name="baocun" unicode="&#59137;" d="M917.102431 896H106.897569A106.977882 106.977882 0 0 1 0 789.102431v-810.204862a106.977882 106.977882 0 0 1 106.897569-106.897569h810.204862a106.977882 106.977882 0 0 1 106.897569 106.897569V789.102431A106.977882 106.977882 0 0 1 917.102431 896z m-168.658823-64.25098v-250.900079a20.239059 20.239059 0 0 0-20.158745-20.158745H295.795451a20.239059 20.239059 0 0 0-20.158745 20.158745V831.74902zM106.897569 831.74902h104.407843v-250.900079a84.490039 84.490039 0 0 1 84.490039-84.409725h432.409098a84.490039 84.490039 0 0 1 84.409726 84.409725V831.74902h104.407843a42.646588 42.646588 0 0 0 42.646588-42.646589v-696.882196H64.25098V789.102431A42.646588 42.646588 0 0 0 106.897569 831.74902zM625.965176 620.92549a32.12549 32.12549 0 0 1 32.125491 32.12549v96.376471a32.12549 32.12549 0 0 1-64.250981 0v-96.376471a32.12549 32.12549 0 0 1 32.12549-32.12549z"  horiz-adv-x="1024" />

    
    <glyph glyph-name="yiji" unicode="&#59138;" d="M1029.039125 740.471446l-21.836209 1.119806H536.884569L402.694532 896H50.32904A50.32904 50.32904 0 0 1 0 845.67096v-923.34192a50.32904 50.32904 0 0 1 50.32904-50.32904h973.111057a50.32904 50.32904 0 0 1 50.32904 50.32904V691.573269a49.769137 49.769137 0 0 1-44.730012 48.898177z m-44.730012-779.322479H89.522236V525.34435h894.786877v-563.884326z"  horiz-adv-x="1073" />

    
    <glyph glyph-name="fabu" unicode="&#59139;" d="M156.123842 497.644748h244.051259V168.060612a61.300159 61.300159 0 0 1 61.300159-61.395941h111.777008A61.395941 61.395941 0 0 1 634.648209 168.060612V495.345992v2.298756h243.955476A52.584043 52.584043 0 0 1 913.180806 589.499205L593.84529 868.127584A118.960621 118.960621 0 0 1 440.594893 867.26555L121.546722 589.499205a52.584043 52.584043 0 0 1 34.57712-92.333365zM982.047704-22.640352H52.679824a52.679824 52.679824 0 0 1 0-105.359648h929.080535a52.679824 52.679824 0 0 1 0 105.359648z"  horiz-adv-x="1034" />

    
    <glyph glyph-name="erji" unicode="&#59140;" d="M1060.187742 652.298178H932.060519a49.305798 49.305798 0 0 1-8.368415 4.523467L363.460629 889.893319A79.160685 79.160685 0 0 1 260.099393 847.259636l-81.196246-194.961458H79.160685a79.160685 79.160685 0 0 1-79.160685-79.160685v-621.976808a79.160685 79.160685 0 0 1 79.160685-79.160685h981.027057a79.160685 79.160685 0 0 1 79.160684 79.160685v621.976808a79.160685 79.160685 0 0 1-79.160684 79.160685zM351.360353 772.509332l288.823413-120.211154h-339.260077z m674.901381-787.42264H113.086692v554.124793h913.175042z"  horiz-adv-x="1139" />

    
    <glyph glyph-name="quanpingsuoxiao" unicode="&#59141;" d="M453.049725 674.976627a32.12549 32.12549 0 0 1-21.202823-8.031372v0.963765l-80.715294-80.313726-123.442196 126.092549a32.12549 32.12549 0 0 1-46.019765-44.895372l124.084706-127.056314-83.847529-83.84753h1.044078a31.563294 31.563294 0 0 1-8.031373-21.042196 32.12549 32.12549 0 0 1 32.125491-32.12549H455.218196a34.374275 34.374275 0 0 1 3.935373 0 19.435922 19.435922 0 0 1 2.891294 0.803137c1.044078 0 2.088157 0.562196 3.051921 0.963765a20.720941 20.720941 0 0 1 2.971608 1.525961 16.062745 16.062745 0 0 1 2.570039 1.365333 34.615216 34.615216 0 0 1 3.212549 2.570039c0.562196 0.481882 1.124392 0.803137 1.606275 1.28502a33.892392 33.892392 0 0 1 3.373176 4.096l0.64251 0.722824a30.760157 30.760157 0 0 1 2.971608 5.541647 32.12549 32.12549 0 0 1 1.847216 5.943215v1.044079a29.555451 29.555451 0 0 1 0.481882 5.300706V642.851137a32.12549 32.12549 0 0 1-31.723922 32.12549zM718.245647 226.263843L802.093176 309.709804h-1.044078a31.563294 31.563294 0 0 1 8.031373 21.042196 32.12549 32.12549 0 0 1-32.125491 32.12549H570.950275a31.643608 31.643608 0 0 1-6.184157-0.64251 22.487843 22.487843 0 0 1-2.489726-0.722823 29.394824 29.394824 0 0 1-3.533804-1.044079l-2.570039-1.365333c-0.963765-0.562196-2.007843-0.963765-2.891294-1.606274a27.065725 27.065725 0 0 1-2.971608-2.329098c-0.562196-0.481882-1.204706-0.883451-1.766902-1.445648a33.892392 33.892392 0 0 1-3.373176-4.096l-0.64251-0.722823a30.760157 30.760157 0 0 1-2.971608-5.541647 32.12549 32.12549 0 0 1-1.847216-5.943216v-1.044078a39.434039 39.434039 0 0 1-0.481882-5.300706V124.988235a32.12549 32.12549 0 0 1 32.12549-32.12549 32.12549 32.12549 0 0 1 21.202824 8.031373v-1.044079l80.313725 80.313726 123.442196-125.851608a32.12549 32.12549 0 1 1 46.019765 44.895372zM917.102431 896H106.897569A106.977882 106.977882 0 0 1 0 789.102431v-810.204862a106.977882 106.977882 0 0 1 106.897569-106.897569h810.204862a106.977882 106.977882 0 0 1 106.897569 106.897569V789.102431A106.977882 106.977882 0 0 1 917.102431 896z m42.646589-917.102431a42.646588 42.646588 0 0 0-42.646589-42.646589H106.897569A42.646588 42.646588 0 0 0 64.25098-21.102431V789.102431A42.646588 42.646588 0 0 0 106.897569 831.74902h810.204862a42.646588 42.646588 0 0 0 42.646589-42.646589z"  horiz-adv-x="1024" />

    
    <glyph glyph-name="quanpingzhankai" unicode="&#59142;" d="M351.934745 586.390588l83.84753 83.84753h-1.044079a32.12549 32.12549 0 0 1-24.094118 53.167686H204.639373a19.917804 19.917804 0 0 1-2.168471 0 34.374275 34.374275 0 0 1-3.935373-0.401569 19.435922 19.435922 0 0 1-2.891294-0.803137c-1.044078 0-2.088157-0.562196-3.051921-0.963765a20.720941 20.720941 0 0 1-2.971608-1.52596 16.062745 16.062745 0 0 1-2.570039-1.365334 34.615216 34.615216 0 0 1-3.212549-2.570039c-0.562196-0.481882-1.124392-0.803137-1.606275-1.28502a33.892392 33.892392 0 0 1-3.373176-4.096l-0.64251-0.722823a30.760157 30.760157 0 0 1-2.971608-5.541647 32.12549 32.12549 0 0 1-1.847216-5.943216v-1.044078a29.555451 29.555451 0 0 1-0.481882-5.300706v-206.566902a32.12549 32.12549 0 0 1 53.328314-24.094118v-0.963765l80.313725 80.313726L429.999686 414.117647a32.12549 32.12549 0 0 1 46.019765 44.815059zM819.2 314.849882a32.12549 32.12549 0 0 1-21.202824-8.031372v0.963765l-80.313725-80.313726L594.321569 353.561098a32.12549 32.12549 0 0 1-46.019765-44.815059L672.065255 181.207843 588.217725 97.761882h1.044079a31.563294 31.563294 0 0 1-8.031373-21.042196 32.12549 32.12549 0 0 1 32.125491-32.12549H819.2a31.643608 31.643608 0 0 1 6.184157 0.64251 22.487843 22.487843 0 0 1 2.489725 0.722823 29.95702 29.95702 0 0 1 3.533804 1.124393c0.883451 0 1.686588 0.883451 2.570039 1.285019s2.007843 0.963765 2.891295 1.606275 2.007843 1.525961 2.971607 2.329098 1.204706 0.883451 1.766902 1.445647a28.270431 28.270431 0 0 1 3.453491 4.096 3.132235 3.132235 0 0 1 0.642509 0.803137 27.627922 27.627922 0 0 1 2.971608 5.461333 32.12549 32.12549 0 0 1 1.847216 5.943216v1.044078a39.434039 39.434039 0 0 1 0.803137 5.702275V282.724392a32.12549 32.12549 0 0 1-32.12549 32.12549zM917.102431 896H106.897569A106.977882 106.977882 0 0 1 0 789.102431v-810.204862a106.977882 106.977882 0 0 1 106.897569-106.897569h810.204862a106.977882 106.977882 0 0 1 106.897569 106.897569V789.102431A106.977882 106.977882 0 0 1 917.102431 896z m42.646589-917.102431a42.646588 42.646588 0 0 0-42.646589-42.646589H106.897569A42.646588 42.646588 0 0 0 64.25098-21.102431V789.102431A42.646588 42.646588 0 0 0 106.897569 831.74902h810.204862a42.646588 42.646588 0 0 0 42.646589-42.646589z"  horiz-adv-x="1024" />

    
    <glyph glyph-name="jiaoben" unicode="&#59143;" d="M554.963248 867.491097a88.399698 88.399698 0 0 1-124.975073-2.209992l-405.202115-419.898565a88.399698 88.399698 0 0 1 0-122.76508l405.202115-419.898565a88.399698 88.399698 0 0 1 127.185065 122.76508l-345.863818 358.571275 345.863818 358.460775a88.399698 88.399698 0 0 1-2.209992 124.975072zM2051.570132 445.38254L1646.478517 865.281105a88.399698 88.399698 0 1 1-127.185065-122.76508l345.863817-358.460775-345.863817-358.571275A88.399698 88.399698 0 0 1 1646.478517-97.281105l405.202115 419.898565a88.399698 88.399698 0 0 1-0.1105 122.76508zM1241.9394 889.259523A88.399698 88.399698 0 0 1 1126.467294 840.750189L776.51499-5.787418a88.399698 88.399698 0 1 1 163.428942-67.515269l349.952304 847.090105A88.399698 88.399698 0 0 1 1241.9394 889.259523z"  horiz-adv-x="2076" />

    
    <glyph glyph-name="ceshi" unicode="&#59144;" d="M893.910789 769.28973h-148.854399v54.304401a72.405869 72.405869 0 0 1-72.405869 72.405869H351.349479a72.405869 72.405869 0 0 1-72.405869-72.405869v-54.304401H130.089211A130.390902 130.390902 0 0 1 0 639.50221v-637.412999a130.390902 130.390902 0 0 1 130.089211-130.089211h763.821578a130.390902 130.390902 0 0 1 130.089211 130.089211V639.441871A130.45124 130.45124 0 0 1 893.910789 769.28973z m-557.102822 0.965411V823.594131a14.119144 14.119144 0 0 0 14.300159 14.300159h321.361381a14.119144 14.119144 0 0 0 14.239821-14.300159v-53.037299z m415.247657-262.410936a43.624536 43.624536 0 0 1-30.772494 12.731365H291.312946a43.50386 43.50386 0 0 1-43.383183-43.443521V407.260385a2.775558 2.775558 0 0 1-1.267103 0H57.924695V639.622886a72.405869 72.405869 0 0 0 72.405869 72.405869h763.519887a72.405869 72.405869 0 0 0 72.405869-72.405869v-231.879795h-201.590007V477.43374a43.081492 43.081492 0 0 1-12.610689 30.712156z m-45.434682-45.434683v-167.921277H305.794119V462.711213zM57.985033 349.637381h188.255259a3.921985 3.921985 0 0 1 1.206765 0v-69.690648a43.443521 43.443521 0 0 1 43.383183-43.383183h430.030522a43.383183 43.383183 0 0 1 43.322845 43.383183V349.637381H965.411584v-347.367155a71.621472 71.621472 0 0 0-70.957751-72.405869H130.089211a72.405869 72.405869 0 0 0-72.104178 72.405869z"  horiz-adv-x="1024" />

    
    <glyph glyph-name="bianji" unicode="&#59145;" d="M331.294118 329.246118a8.975059 8.975059 0 0 1-1.686589-2.95153l-53.248-194.078117a33.430588 33.430588 0 0 1 8.432942-32.045177 33.310118 33.310118 0 0 1 31.984941-8.372706l192.752941 52.525177h0.662588a8.252235 8.252235 0 0 1 6.02353 2.469647l515.373176 515.312941a82.462118 82.462118 0 0 1 23.732706 58.910118 100.833882 100.833882 0 0 1-30.117647 70.535529l-48.670118 48.730353a100.833882 100.833882 0 0 1-70.595764 30.117647 82.401882 82.401882 0 0 1-58.910118-23.672471L331.776 330.992941c-0.481882-0.481882-0.481882-1.204706-0.481882-1.746823z m566.211764 466.703058c7.951059 8.011294 23.431529 6.806588 32.587294-2.349176l48.730353-48.790588a26.503529 26.503529 0 0 0 7.951059-18.492236 19.516235 19.516235 0 0 0-5.541647-13.974588l-51.2-51.2L846.968471 745.411765zM794.563765 693.007059l83.004235-84.329412-371.169882-371.169882-83.727059 83.606588z m-412.792471-423.996235L453.451294 197.270588l-98.544941-26.925176zM1013.820235 480.978824a38.731294 38.731294 0 0 1-38.610823-38.610824v-450.319059a42.767059 42.767059 0 0 0-42.706824-42.646588H119.868235a42.767059 42.767059 0 0 0-42.767059 42.646588V776.192a42.767059 42.767059 0 0 0 42.767059 42.706824h493.266824a38.550588 38.550588 0 0 1 0 77.101176H114.447059A114.447059 114.447059 0 0 1 0 781.552941v-795.105882a114.447059 114.447059 0 0 1 114.447059-114.447059h823.476706a114.447059 114.447059 0 0 1 114.447059 114.447059V442.608941a38.671059 38.671059 0 0 1-38.550589 38.369883z"  horiz-adv-x="1055" />

    
    <glyph glyph-name="config-map" unicode="&#59292;" d="M361.259554 39.031041V640.342788l226.863055 128.389531v-452.728911c17.451004 12.714303 36.397809 23.184906 56.715764 31.287158V775.338771l221.253804-123.528181v-319.976628c23.309556-13.212903 44.375411-29.916007 62.449665-49.486062V685.964699L622.152067 856.11199 321.496194 685.964699 20.84032 856.11199v-737.42958l306.389775-170.147291L490.770935 41.025441c-5.609251 21.190505-8.725502 43.378211-8.725502 66.313816l-120.785879-68.308216z m-56.715764-12.963603l-226.863056 126.644431v607.045648l226.863056-131.879732v-601.810347zM944.247746 132.269264c-4.986001 31.411808-17.326354 61.078515-36.023859 86.756421l20.442605 20.442605-44.998661 45.123311-20.442605-20.442605c-25.677906 18.697505-55.344614 31.037858-86.756421 36.023859v28.918807h-63.696166V300.172855c-31.287158-4.986001-61.078515-17.326354-86.756421-36.023859l-20.442605 20.442605-44.998661-44.998661 20.567255-20.442605c-18.697505-25.677906-31.037858-55.344614-36.148509-86.756421h-28.918807v-63.696166h28.918807c4.986001-31.411808 17.326354-61.078515 36.023859-86.756421L560.574952-38.501278l45.123311-44.998661 20.442605 20.442605c25.677906-18.697505 55.469264-31.037858 86.756421-36.023859v-28.918807h63.696166v28.918807c31.287158 4.986001 61.078515 17.326354 86.756421 36.023859l20.442605-20.442605 44.998661 44.998661-20.442605 20.442605c18.697505 25.677906 31.037858 55.344614 36.023859 86.756421H973.166553v63.696166h-28.918807zM744.558397-46.35423c-59.333414 0-112.932928 35.774559-135.619233 90.620572-22.686306 54.846013-10.221302 118.043579 31.785758 159.925989 42.00706 42.00706 105.079976 54.596713 159.925989 31.785758 54.846013-22.686306 90.620572-76.285819 90.620572-135.619233 0-80.89787-65.565916-146.588436-146.713086-146.713086z m0 0M744.558397 213.291783c-62.325015 0-112.932928-50.607912-112.932927-112.932927s50.607912-112.932928 112.932927-112.932928 112.932928 50.483262 112.932928 112.932928c0 62.449665-50.607912 112.932928-112.932928 112.932927z m0-188.221546c-41.63311 0-75.413268 33.780158-75.413268 75.413269s33.780158 75.413268 75.413268 75.413268 75.413268-33.780158 75.413269-75.413268-33.780158-75.413268-75.413269-75.413269z m0 0"  horiz-adv-x="1024" />

    
    <glyph glyph-name="take-up" unicode="&#59294;" d="M128 672a32 32 0 0 0 32 32h704a32 32 0 1 0 0-64H160c-17.664 0-32 14.208-32 32z m288-288c0 17.664 14.368 32 32.224 32h415.552C881.568 416 896 401.792 896 384c0-17.664-14.368-32-32.224-32H448.224A32.032 32.032 0 0 0 416 384zM128 96a32 32 0 0 0 32 32h704a32 32 0 1 0 0-64H160c-17.664 0-32 14.208-32 32z m214.624 425.376L205.248 384l137.376-137.376a32 32 0 0 0-45.248-45.248l-160 160a32 32 0 0 0 0 45.248l160 160a32 32 0 0 0 45.248-45.248z"  horiz-adv-x="1024" />

    
    <glyph glyph-name="diannao" unicode="&#59147;" d="M1064.916932 895.999811H81.960335A81.960335 81.960335 0 0 1 0 814.039476v-655.304398a81.960335 81.960335 0 0 1 81.960335-81.960334h409.801672v-122.877456H286.735078a40.917121 40.917121 0 0 1-40.854074-40.980167v-40.917121h655.241351v40.917121a40.917121 40.917121 0 0 1-40.91712 40.917121h-204.900837V76.396465h409.801673a81.960335 81.960335 0 0 1 81.960335 81.960335V814.039476a81.960335 81.960335 0 0 1-82.149474 81.960335z m0-655.682677H81.960335V814.039476h983.145736z"  horiz-adv-x="1147" />

    
    <glyph glyph-name="zidian" unicode="&#59148;" d="M962.853503 44.29724c-0.271762 7.772399-0.652229 11.740127-0.978344 14.946921a117.727389 117.727389 0 0 0-0.652229 14.946922V809.960085A86.14862 86.14862 0 0 1 875.183015 896H147.186412A86.14862 86.14862 0 0 1 61.146497 809.960085v-820.721868a117.183864 117.183864 0 0 1 117.020807-117.238217H882.41189a80.550318 80.550318 0 0 1 80.441613 80.441614z m-79.354565 60.874735H317.690021V818.276008h231.541402v-304.047558a8.533333 8.533333 0 0 1 13.859872-6.630998l87.670488 70.984289a8.587686 8.587686 0 0 0 10.870489 0l87.724841-70.984289a8.478981 8.478981 0 0 1 13.80552 6.630998V818.276008h97.834395a22.447558 22.447558 0 0 0 22.447558-22.447558zM137.511677 4.619958c2.500212 9.56603 8.696391 22.284501 32.883227 22.284501h714.734608v-40.927389a36.253079 36.253079 0 0 0-36.253079-36.253078H181.917622a46.634395 46.634395 0 0 0-36.74225 18.153715 42.06879 42.06879 0 0 0-7.663695 36.742251z"  horiz-adv-x="1024" />

    
    <glyph glyph-name="setting" unicode="&#59149;" d="M981.773196 502.762887h-68.618557a206.858557 206.858557 0 0 1-13.195876 36.948453L897.319588 552.907216c-5.278351 10.556701-10.556701 23.752577-15.835052 34.309279l47.505155 47.505154a39.693196 39.693196 0 0 1 10.556701 29.030928 55.317113 55.317113 0 0 1-10.556701 29.030928l-110.845361 110.845361c-13.195876 13.195876-42.226804 13.195876-55.422681 0l-47.505154-47.505155c-10.556701 5.278351-23.752577 13.195876-36.948454 18.474227l-10.556701 5.278351c-10.556701 5.278351-23.752577 7.917526-36.948453 13.195876v63.340206A40.590515 40.590515 0 0 1 591.175258 896H432.824742a40.590515 40.590515 0 0 1-39.587629-39.587629v-68.618557a206.858557 206.858557 0 0 1-36.948453-13.195876L343.092784 769.319588c-10.556701-5.278351-23.752577-10.556701-34.309279-15.835052l-47.505154 47.505155c-15.835052 15.835052-42.226804 15.835052-55.422681 2.639175L92.371134 690.14433a33.88701 33.88701 0 0 1-10.556701-26.391753 55.317113 55.317113 0 0 1 10.556701-29.030928l47.505155-47.505154c-5.278351-10.556701-13.195876-23.752577-18.474227-36.948454l-2.639175-10.556701c-5.278351-10.556701-7.917526-23.752577-13.195877-36.948453H39.587629A40.590515 40.590515 0 0 1 0 463.175258v-158.350516a40.590515 40.590515 0 0 1 39.587629-39.587629h68.618557a206.858557 206.858557 0 0 1 13.195876-36.948453l5.27835-10.556701c5.278351-10.556701 10.556701-23.752577 15.835052-34.309279l-50.14433-47.505154a39.693196 39.693196 0 0 1-10.556701-29.030928 55.317113 55.317113 0 0 1 10.556701-29.030928l110.845361-110.845361c13.195876-13.195876 42.226804-13.195876 55.42268 0l47.505155 47.505155c10.556701-5.278351 23.752577-10.556701 34.309278-15.835052l13.195877-5.27835c10.556701-5.278351 23.752577-7.917526 36.948453-13.195876v-68.618557a40.590515 40.590515 0 0 1 39.587629-39.587629h158.350515a40.590515 40.590515 0 0 1 39.587629 39.587629v68.618557a206.858557 206.858557 0 0 1 36.948454 13.195876l10.556701 5.27835c10.556701 5.278351 23.752577 10.556701 34.309278 15.835052l47.505155-47.505155c13.195876-13.195876 42.226804-13.195876 55.42268 0l110.845361 110.845361a39.693196 39.693196 0 0 1 10.556701 29.030928 55.317113 55.317113 0 0 1-10.556701 29.030928l-42.226804 47.505154c5.278351 10.556701 13.195876 23.752577 18.474227 36.948454l5.27835 10.556701c5.278351 10.556701 7.917526 23.752577 13.195877 36.948454h68.618556a40.590515 40.590515 0 0 1 39.587629 39.587629v158.350515c-2.639175 21.113402-21.113402 36.948454-44.865979 36.948454z m-29.030928-168.907217H860.371134l-7.917526-31.670103a217.520825 217.520825 0 0 0-15.835051-50.14433l-2.639176-10.556701a368.64 368.64 0 0 0-23.752577-44.865979l-15.835051-26.391753L860.371134 104.247423l-71.257732-71.257732L723.134021 98.969072l-26.391753-15.835051a397.037526 397.037526 0 0 0-47.505155-23.752578l-7.917525-2.639175-47.505155-15.835052-31.670103-7.917525V-59.381443H459.216495v92.371134l-31.670103 7.917525c-15.835052 5.278351-31.670103 7.917526-50.14433 15.835052l-7.917526 2.639175a368.64 368.64 0 0 0-44.865979 23.752578l-26.391753 15.835051L232.247423 32.989691 160.989691 104.247423 226.969072 170.226804l-15.835051 26.391753c-7.917526 13.195876-15.835052 29.030928-23.752578 44.865979l-2.639175 10.556701-15.835052 47.505155-7.917525 31.670103h-95.01031V434.14433H158.350515l7.917526 31.670103c5.278351 18.474227 10.556701 34.309278 15.835052 50.14433l5.27835 10.556701a184.742268 184.742268 0 0 0 23.752578 44.865979l15.835051 26.391753L160.989691 663.752577 232.247423 735.010309 298.226804 669.030928l26.391753 15.835051c13.195876 7.917526 29.030928 15.835052 44.865979 23.752578l10.556701 2.639175 47.505155 15.835052 31.670103 7.917525v95.01031h102.927835V737.649485l31.670103-10.556701a217.520825 217.520825 0 0 0 50.14433-15.835052l7.917526-2.639175A368.64 368.64 0 0 0 696.742268 684.865979l26.391753-15.835051 65.979381 65.979381L860.371134 663.752577l-65.979381-65.979381 15.835051-26.391753c7.917526-13.195876 15.835052-29.030928 23.752577-44.865979l2.639176-10.556701 15.835051-47.505155 7.917526-31.670103h92.371134zM512 605.690722a219.051546 219.051546 0 1 1 219.051546-219.051547A218.523711 218.523711 0 0 1 512 605.690722z m0-372.123712a153.072165 153.072165 0 1 0 153.072165 153.072165c-2.639175-87.092784-71.257732-153.072165-153.072165-153.072165z"  horiz-adv-x="1026" />

    
    <glyph glyph-name="dictionary" unicode="&#59150;" d="M938.358047 56.245931v9.25859V847.855335C938.358047 893.222423 955.023508 889.518987 857.808318 889.518987H696.708861c-37.034358 0-62.03255 0.925859-77.772152 0H218.039783C156.933092 889.518987 84.716094 817.301989 84.716094 755.269439v-786.980108c0-62.03255 26.84991-89.808318 88.882459-89.808318h554.589512c5.555154-0.925859 14.813743 0 31.479204 0h132.39783c42.589512 0 47.218807-6.481013 47.218807 36.108499V44.209765c0 2.777577 0 7.406872-0.925859 12.036166zM851.327306 598.799277c0-43.515371 10.184448-67.587703-34.256782-67.587704H305.996383c-43.515371 0-38.886076 12.962025-38.886076 56.477396V636.759494c0 43.515371-5.555154 51.848101 38.886076 51.848101h511.074141c43.515371 0 34.256781-14.813743 34.256782-58.329114v-31.479204z m6.481012-634.213382c0-43.515371 49.996383-49.996383-20.368897-49.070524H230.075949c-43.515371 0-83.327306-5.555154-83.327305 37.960217v13.887884c0 43.515371 26.84991 78.698011 70.36528 78.698011h654.582279c43.515371 0 8.332731-8.332731-8.332731-49.070525l-5.555154-32.405063zM368.954792 579.356239h-26.84991c-6.481013 0-11.110307 1.851718-16.665461 6.481012-5.555154 4.629295-8.332731 11.110307-8.33273 19.443038 0 8.332731 2.777577 14.813743 8.33273 19.443038 4.629295 3.703436 10.184448 6.481013 16.665461 6.481013h16.665462v21.294756h10.184448v-73.142857zM358.770344 590.466546v31.479204h-15.739603c-3.703436 0-7.406872-0.925859-9.258589-3.703435-2.777577-2.777577-4.629295-7.406872-4.629295-12.036167 0-5.555154 1.851718-9.25859 4.629295-12.036166 2.777577-2.777577 5.555154-3.703436 9.258589-3.703436h15.739603z m34.256781 52.77396h-10.184449v10.184449h10.184449v-10.184449z m0-63.884267h-10.184449v51.848101h10.184449v-51.848101z m61.106691 0h-24.998192c-6.481013 0-12.036166 1.851718-16.665461 6.481012-4.629295 4.629295-7.406872 11.110307-7.406872 19.443038 0 8.332731 2.777577 14.813743 7.406872 20.368897 4.629295 3.703436 10.184448 6.481013 16.665461 6.481013h24.998192v-10.184449h-24.072333c-3.703436 0-7.406872-0.925859-9.25859-3.703435-2.777577-2.777577-4.629295-7.406872-4.629294-12.036167s1.851718-9.25859 4.629294-12.036166c2.777577-2.777577 5.555154-3.703436 9.25859-3.703436h24.072333v-11.110307z m47.218806 42.589511h-17.59132V599.725136c0-3.703436 0-6.481013 0.925859-7.406872 0.925859-1.851718 2.777577-1.851718 5.555154-1.851718h11.110307v-10.184448h-11.110307c-11.110307 0-16.665461 6.481013-16.665461 20.368897v22.220614h-12.962026v10.184449h12.962026v21.294756h10.184448v-21.294756h17.59132v-11.110308z m23.146474 21.294756H514.314647v10.184449h10.184449v-10.184449z m0-63.884267H514.314647v51.848101h10.184449v-51.848101z m69.439421 26.849909c0-8.332731-2.777577-14.813743-8.33273-20.368897-5.555154-5.555154-12.036166-8.332731-20.368897-8.33273-8.332731 0-14.813743 2.777577-20.368897 8.33273-5.555154 5.555154-8.332731 12.036166-8.332731 20.368897 0 8.332731 2.777577 14.813743 8.332731 20.368897 5.555154 5.555154 12.036166 8.332731 20.368897 8.332731 8.332731 0 14.813743-2.777577 20.368897-8.332731 5.555154-5.555154 8.332731-12.962025 8.33273-20.368897z m-10.184448 0c0 4.629295-1.851718 9.25859-5.555154 12.962026-3.703436 3.703436-7.406872 5.555154-12.962025 5.555153-4.629295 0-9.25859-1.851718-12.962026-5.555153-3.703436-3.703436-5.555154-7.406872-5.555153-12.962026 0-4.629295 1.851718-9.25859 5.555153-12.962025 3.703436-3.703436 7.406872-5.555154 12.962026-5.555154 4.629295 0 9.25859 1.851718 12.962025 5.555154 3.703436 3.703436 5.555154 8.332731 5.555154 12.962025z m63.884267-26.849909h-10.184448v24.998191c0 7.406872-0.925859 12.036166-3.703436 13.887885-1.851718 1.851718-5.555154 2.777577-12.036166 2.777577h-11.110308v-42.589512h-10.184448v51.848101h21.294756c8.332731 0 14.813743-1.851718 18.517179-5.555154 4.629295-4.629295 7.406872-12.036166 7.406871-22.220615v-23.146473z m55.551537 0h-33.330922c-3.703436 0-7.406872 0.925859-10.184448 2.777577-4.629295 3.703436-6.481013 8.332731-6.481013 13.887884s2.777577 10.184448 7.406872 13.887884c2.777577 1.851718 6.481013 2.777577 10.184448 2.777577h22.220615c-0.925859 5.555154-5.555154 8.332731-13.887884 8.332731H653.19349v10.184448h25.924051c8.332731 0 13.887884-1.851718 17.59132-6.481013 3.703436-3.703436 6.481013-9.25859 6.481012-16.665461v-28.701627z m-10.184448 10.184448v12.962025h-23.146474c-1.851718 0-3.703436 0-5.555154-0.925858-1.851718-0.925859-1.851718-2.777577-1.851717-4.629295s0.925859-3.703436 1.851717-4.629295c1.851718-0.925859 2.777577-1.851718 5.555154-1.851718l23.146474-0.925859z m50.922242 15.739602h-10.184448v7.406872c0 5.555154-2.777577 8.332731-8.332731 8.332731H718.003617v-42.589512h-9.25859v51.848101h18.517179c11.110307 0 16.665461-6.481013 16.665461-18.517179v-6.481013z m51.848102-17.59132c0-8.332731-1.851718-14.813743-5.555154-17.59132-3.703436-3.703436-9.25859-5.555154-17.59132-5.555154h-21.294756v10.184449h21.294756c3.703436 0 7.406872 0.925859 9.258589 1.851718 1.851718 1.851718 2.777577 3.703436 2.777577 8.33273h-12.036166c-14.813743 0-22.220615 7.406872-22.220615 22.220615v25.924051h10.184448v-25.924051c0-4.629295 0.925859-8.332731 2.777577-10.184448 1.851718-0.925859 4.629295-1.851718 9.25859-1.851718h12.962025v37.034358h10.184449v-44.44123z"  horiz-adv-x="1024" />

    
    <glyph glyph-name="view1" unicode="&#59303;" d="M229.074754 895.992074a229.05227 229.05227 0 0 0 229.03648-229.05227v-229.03648H229.074754a229.05227 229.05227 0 0 0 0 458.08875z m0-565.88084h229.03648v-229.05227A229.05227 229.05227 0 1 0 229.074754 330.11123399999997zM794.939805 895.992074a229.05227 229.05227 0 1 0 0-458.08875H565.903324V666.939804A229.05227 229.05227 0 0 0 794.939805 895.992074zM565.903324 330.11123399999997h229.036481A229.05227 229.05227 0 1 0 565.903324 101.05896399999995z m0 0"  horiz-adv-x="1025" />

    
    <glyph glyph-name="approval1" unicode="&#59304;" d="M924.359281 896H98.874251A98.874251 98.874251 0 0 1 0 797.125749v-825.48503a98.874251 98.874251 0 0 1 98.874251-98.874252h825.48503a98.874251 98.874251 0 0 1 98.874252 98.874252V797.125749A98.874251 98.874251 0 0 1 924.359281 896z m-229.940119-850.778443H347.976048V129.53293399999995h350.275449z m128.766467 131.832335h-613.173653V263.664671A86.610778 86.610778 0 0 0 306.586826 350.275449h128v68.982036a176.287425 176.287425 0 0 0-86.610778 153.293413 173.221557 173.221557 0 1 0 260.598802-153.293413v-68.982036h131.832336a86.610778 86.610778 0 0 0 86.610778-86.610778z"  horiz-adv-x="1024" />

    
    <glyph glyph-name="server1" unicode="&#59305;" d="M322.682635 434.586826h46.754491v-93.508982h-46.754491zM167.08982 433.053892H260.598802v-93.508982H167.08982zM924.359281 896H98.874251A98.874251 98.874251 0 0 1 0 797.125749v-825.48503a98.874251 98.874251 0 0 1 98.874251-98.874252h825.48503a98.874251 98.874251 0 0 1 98.874252 98.874252V797.125749A98.874251 98.874251 0 0 1 924.359281 896zM98.107784 763.401198a32.191617 32.191617 0 0 0 32.191617 32.191616h778.730539a32.191617 32.191617 0 0 0 32.191617-32.191616V604.742515a32.191617 32.191617 0 0 0-32.191617-32.191617H130.299401a32.191617 32.191617 0 0 0-32.191617 32.191617z m0-297.389222a32.191617 32.191617 0 0 0 32.191617 32.191617h778.730539a32.191617 32.191617 0 0 0 32.191617-32.191617v-158.658683a32.191617 32.191617 0 0 0-32.191617-32.191616H130.299401a32.191617 32.191617 0 0 0-32.191617 32.191616zM167.08982 730.443114H260.598802v-93.508982H167.08982zM322.682635 731.976048h46.754491v-93.508982h-46.754491z"  horiz-adv-x="1024" />

    
    <glyph glyph-name="shell1" unicode="&#59306;" d="M924.359281 896H98.874251A98.874251 98.874251 0 0 1 0 797.125749v-825.48503a98.874251 98.874251 0 0 1 98.874251-98.874252h825.48503a98.874251 98.874251 0 0 1 98.874252 98.874252V797.125749A98.874251 98.874251 0 0 1 924.359281 896zM187.017964 33.72455100000002l-81.245509 81.245509L306.586826 318.85029899999995 105.772455 522.730539l81.245509 81.245509 285.125749-285.125749z m689.820359 0h-390.898203V149.46107800000004h389.365269z"  horiz-adv-x="1024" />

    
    <glyph glyph-name="to-approval1" unicode="&#59307;" d="M877.423173 833.438327v-209.141564H919.55792V833.438327l69.713855-76.608632 32.175625 32.175626L934.879647 880.935679a50.561697 50.561697 0 0 1-72.012114 0l-88.099926-88.866013 33.707797-33.707798zM623.082516 895.491319H99.079475A98.825135 98.825135 0 0 1 0.254341 796.666184v-825.074963a98.825135 98.825135 0 0 1 98.825134-98.825135h825.074963a98.825135 98.825135 0 0 1 98.825135 98.825135v536.260422h-11.491295A388.405762 388.405762 0 0 0 623.082516 895.491319z m76.608632-847.291466H348.057528V129.40500199999997h350.101447z m128.702501 131.766846h-612.869053V263.470108A86.567754 86.567754 0 0 0 306.688867 350.037861h127.936415v68.947769a176.199853 176.199853 0 0 0-86.567754 153.217263 173.135508 173.135508 0 1 0 260.469348-153.217263v-68.947769h131.766846a86.567754 86.567754 0 0 0 86.567754-86.567753z"  horiz-adv-x="1024" />

    
    <glyph glyph-name="task1" unicode="&#59308;" d="M255.811903 691.3504780000001v150.47759A51.162381 51.162381 0 0 0 306.974284 896h410.051432a51.162381 51.162381 0 0 0 51.162381-51.162381v-150.47759h204.649522a51.162381 51.162381 0 0 0 51.162381-51.16238v-717.025717a51.162381 51.162381 0 0 0-51.162381-51.16238H51.162381a51.162381 51.162381 0 0 0-51.162381 48.152829V640.188097a51.162381 51.162381 0 0 0 51.162381 51.162381H255.811903z m-51.162381-410.051433V589.025716H102.324761v-307.726671h102.324761z m102.324762 307.726671v-307.726671h150.47759V383.62380599999995h106.086701v-102.324761h150.47759V589.025716z m512.376194-306.974283h102.324761V589.025716h-102.324761v-307.726671z m-461.213814 511.623806v-102.324761h307.726672V793.675239z"  horiz-adv-x="1024" />

    
    <glyph glyph-name="shoudong" unicode="&#59152;" d="M833.024 570.88c-30.72 0-57.856-12.288-77.824-32.768-19.968 19.968-47.104 32.768-77.824 32.768s-57.856-12.288-77.824-32.768c-19.968 19.968-47.104 32.768-77.824 32.768-16.896 0-32.256-3.584-46.592-10.752V721.408c0 60.416-48.64 109.056-109.056 109.056s-109.056-48.64-109.056-109.056v-360.96c-42.496 33.28-104.448 30.208-143.872-9.216-42.496-42.496-42.496-111.616 0-154.112l144.896-144.896c8.192-64.512 63.488-114.176 130.048-114.176h422.4c72.192 0 131.072 58.88 131.072 131.072V461.824c0.512 60.416-48.128 109.056-108.544 109.056zM257.536 141.312l-99.84 99.84c-18.432 18.432-18.432 47.616 0 66.048s47.616 18.432 66.048 0l33.792-33.792v-132.096z m622.592-72.192c0-37.888-30.72-69.12-69.12-69.12H388.608c-37.888 0-69.12 30.72-69.12 69.12V721.408c0 25.6 20.992 46.592 46.592 46.592s46.592-20.992 46.592-46.592V419.84h61.952v41.984c0 25.6 20.992 46.592 46.592 46.592s46.592-20.992 46.592-46.592V419.84H629.76v41.984c0 25.6 20.992 46.592 46.592 46.592s46.592-20.992 46.592-46.592V419.84h61.952v41.984c0 25.6 20.992 46.592 46.592 46.592s46.592-20.992 46.592-46.592l2.048-392.704z"  horiz-adv-x="1024" />

    
    <glyph glyph-name="dingshidanci" unicode="&#59153;" d="M512-68.608c-137.216 0-265.216 61.44-351.744 167.936-1.536 1.536-2.56 3.584-4.096 5.12C93.184 184.832 59.904 281.6 59.904 384v6.656l5.12 0.512h-5.12c1.024 68.096 17.92 135.168 50.176 199.68 3.584 9.728 12.288 16.384 23.04 16.384 13.824 0 25.088-11.264 25.088-25.088 0-2.56-0.512-4.608-1.536-6.656 0-1.024 0-1.536-0.512-2.048-30.208-56.32-45.568-119.296-45.568-186.88 0-64 14.336-124.928 43.52-181.248 68.096-138.24 205.824-224.256 359.424-224.256 71.68 0 141.824 19.456 203.776 56.32l-24.064 41.472c-1.024 1.536-1.024 4.096 0.512 5.632 1.024 1.536 2.56 2.048 4.096 2.048h1.536l98.304-26.112c1.536-0.512 2.56-1.024 3.072-2.56s1.024-2.56 0.512-4.096l-26.112-98.304c-0.512-2.048-2.048-3.584-4.096-3.584h-0.512c-2.048 0-3.584 1.024-4.608 2.56l-23.552 40.96c-67.584-39.936-143.36-61.952-219.648-63.488h-1.024c-3.584-0.512-6.656-0.512-9.728-0.512z m378.88 228.864c-13.824 0-25.088 11.264-25.088 25.088 0 2.56 0.512 4.608 1.536 6.656 0 1.024 0 1.536 0.512 2.048 30.208 56.32 45.568 119.296 45.568 186.88 0 64-14.336 124.928-43.52 181.248-68.096 138.24-205.824 224.256-359.424 224.256-71.68 0-141.824-19.456-203.776-56.32l24.064-41.472c1.024-2.048 1.024-4.096-0.512-5.632-1.024-1.536-2.56-2.048-4.096-2.048h-1.536l-98.304 26.112c-1.536 0.512-2.56 1.024-3.072 2.56s-1.024 2.56-0.512 4.096l26.112 98.304c0.512 2.048 2.048 3.584 4.096 3.584h0.512c2.048 0 3.584-1.024 4.608-2.56l23.552-40.96c67.584 39.936 143.36 61.952 219.648 63.488h10.24c137.216 0 265.216-61.44 351.744-167.936 1.536-1.536 2.56-3.584 4.096-5.12 62.976-80.384 96.256-176.64 96.256-279.04v-6.656l-5.12-0.512h5.12c-1.024-68.096-17.92-135.168-50.176-199.68-2.56-9.728-11.776-16.384-22.528-16.384zM512 830.976c140.288 0 265.728-64.512 347.648-165.888 1.536-1.536 2.56-3.072 4.096-5.12 59.904-75.776 95.744-172.032 95.744-276.48V376.32c-1.024-71.168-19.968-138.24-50.176-198.144-2.56-7.68-9.728-13.312-18.432-13.312-10.752 0-19.968 8.704-19.968 19.968 0 2.048 0.512 4.096 1.536 6.144v0.512c30.208 56.32 46.08 120.832 46.08 189.44 0 66.048-15.872 128.512-44.032 183.296-66.048 134.144-204.288 226.816-364.032 226.816-76.8 0-148.992-22.016-210.432-59.392l26.624-45.568-98.304 26.112 26.112 98.304 26.112-45.568C346.112 805.376 421.376 829.44 502.272 830.976h9.728M133.12 602.112c10.752 0 19.968-8.704 19.968-19.968 0-2.048-0.512-4.096-1.536-6.144v-0.512c-30.208-56.32-46.08-120.832-46.08-189.44 0-66.048 15.872-128.512 44.032-183.296 66.048-134.144 204.288-226.816 364.032-226.816 76.8 0 148.992 22.016 210.432 59.392l-26.624 45.568 98.304-26.112-26.112-98.304-26.112 45.568c-65.024-39.424-140.288-63.488-221.184-65.536h-9.728c-140.288 0-265.728 64.512-347.648 165.888-1.536 1.536-2.56 3.072-4.096 5.12-59.904 75.776-95.744 172.032-95.744 276.48V391.168c1.024 71.168 19.968 138.24 50.176 198.144 2.048 7.68 9.728 12.8 17.92 12.8m378.88 239.104h-10.24c-75.264-1.536-150.528-23.04-217.6-61.44l-20.992 36.352c-2.048 3.072-5.12 5.12-8.704 5.12h-1.536c-4.096-0.512-7.68-3.584-8.704-7.68l-26.112-98.304c-1.536-5.632 2.048-11.264 7.168-12.288l98.304-26.112c1.024 0 1.536-0.512 2.56-0.512 3.072 0 6.144 1.536 8.192 4.096 2.56 3.072 2.56 7.68 0.512 11.264l-21.504 36.864c59.904 34.816 127.488 52.736 196.608 52.736 75.264 0 148.48-21.504 211.456-61.44 61.44-38.912 111.104-94.208 143.36-159.744 28.672-55.808 43.008-116.224 43.008-179.2 0-67.072-14.848-129.024-45.056-184.832-0.512-1.024-1.024-2.56-1.024-3.584-0.512-2.048-1.536-4.608-1.536-7.68 0-16.384 13.312-30.208 30.208-30.208 12.288 0 23.552 7.68 27.648 19.456 32.256 65.024 49.664 133.12 50.688 201.728v0.512 6.656c0 103.424-33.792 201.216-97.28 282.112-1.536 1.536-2.56 3.584-4.096 5.12-87.04 109.056-216.576 171.008-355.328 171.008zM133.12 612.352c-12.288 0-23.552-7.68-27.648-19.456-32.256-65.024-49.664-133.12-50.688-201.728V384c0-103.424 33.792-201.216 97.28-282.112 1.536-1.536 2.56-3.584 4.096-5.12 87.552-108.032 217.088-169.984 355.84-169.984h10.24c75.264 1.536 150.528 23.04 217.6 61.44l20.992-36.352c2.048-3.072 5.12-5.12 8.704-5.12h1.536c4.096 0.512 7.68 3.584 8.704 7.68l26.112 98.304c1.536 5.632-2.048 11.264-7.168 12.288l-98.304 26.112c-1.024 0-1.536 0.512-2.56 0.512-3.072 0-6.144-1.536-8.192-4.096-2.56-3.072-2.56-7.68-0.512-11.264l21.504-36.864c-59.904-34.816-127.488-52.736-196.608-52.736-75.264 0-148.48 21.504-211.456 61.44-61.44 38.912-111.104 94.208-143.36 159.744-28.672 55.808-43.008 116.224-43.008 179.2 0 67.072 14.848 129.024 45.056 184.832 0.512 1.024 1.024 2.56 1.024 3.584 0.512 2.048 1.536 4.608 1.536 7.68-0.512 15.872-13.824 29.184-30.72 29.184zM401.92 230.4H476.16V525.312H413.696v42.496c34.304 6.656 58.368 15.36 80.384 28.672h50.688V230.4H609.28v-55.296H401.92V230.4z"  horiz-adv-x="1024" />

    
    <glyph glyph-name="zidong" unicode="&#59154;" d="M663.552 188.928c-8.192 0-14.848 2.56-20.48 7.168-5.632 5.12-9.728 11.264-11.776 19.456l-36.352 91.136h-174.08L394.24 238.592c-2.56-5.632-4.608-11.264-6.656-16.896-2.56-5.632-5.12-10.752-8.192-15.872s-7.168-9.216-11.776-12.288c-4.608-3.072-10.24-5.12-16.384-5.12-10.752 0-18.944 3.072-25.088 9.216-6.656 6.656-7.168 17.92-1.024 33.792l143.36 377.856c2.56 7.68 7.168 13.824 13.824 17.92 6.656 4.608 14.848 6.656 25.088 6.656 10.752 0 19.456-2.048 26.112-6.656 6.656-4.608 11.776-10.752 14.336-18.432l143.872-378.368c4.096-11.264 4.096-20.992 0.512-29.184-4.096-8.704-13.312-13.312-27.136-13.312 0 1.024-1.024 1.024-1.536 1.024z m-84.48 171.008L508.416 551.936l-70.656-192h141.312zM507.904 629.76c9.728 0 17.408-2.048 23.04-5.632 6.144-4.096 10.24-9.216 12.288-15.872l143.872-378.88c3.584-9.728 4.096-18.432 0.512-25.088-3.072-6.656-10.752-10.24-22.528-10.24h-2.048c-6.656 0-12.288 2.048-16.896 6.144s-8.192 9.728-10.752 16.896l-37.376 94.72H417.792L389.632 240.64c-2.048-5.632-4.608-11.264-6.656-16.896-2.048-5.12-5.12-10.24-7.68-14.848-3.072-4.608-6.144-8.192-10.24-10.752s-8.192-4.096-13.312-4.096c-9.216 0-16.384 2.56-20.992 7.68-5.12 5.12-5.12 14.848 0 28.672l143.36 377.344c2.048 6.656 6.144 11.776 11.776 15.872 5.12 4.096 12.8 6.144 22.016 6.144m-77.312-274.944h155.648L508.416 566.784l-77.824-211.968M507.904 640c-11.264 0-20.48-2.56-28.16-7.68s-12.8-12.288-15.872-20.48l-143.36-377.344c-2.56-6.656-9.728-27.136 2.048-39.424 7.168-7.168 16.384-10.752 28.672-10.752 7.168 0 13.312 2.048 18.944 5.632 5.12 3.584 9.216 8.192 12.8 13.824 3.072 5.12 6.144 10.752 8.704 16.384 2.048 5.12 4.608 10.752 7.168 16.896l25.6 64.512h166.912l34.816-87.552c3.072-8.704 7.168-15.872 13.312-20.992 6.144-5.632 14.336-8.704 23.552-8.704h2.048c19.968 0 28.16 8.704 31.744 15.872 4.608 9.216 4.096 20.48-0.512 32.768l-143.872 378.88c-3.072 8.704-8.704 15.872-16.384 20.992-7.168 4.608-16.896 7.168-28.16 7.168zM445.44 365.056l62.976 172.032 62.976-172.032H445.44zM512-68.608c-137.216 0-265.216 61.44-351.744 167.936-1.536 1.536-2.56 3.584-4.096 5.12C93.184 184.832 59.904 281.6 59.904 384v6.656l5.12 0.512h-5.12c1.024 68.096 17.92 135.168 50.176 199.68 3.584 9.728 12.288 16.384 23.04 16.384 13.824 0 25.088-11.264 25.088-25.088 0-2.56-0.512-4.608-1.536-6.656 0-1.024 0-1.536-0.512-2.048-30.208-56.32-45.568-119.296-45.568-186.88 0-64 14.336-124.928 43.52-181.248 68.096-138.24 205.824-224.256 359.424-224.256 71.68 0 141.824 19.456 203.776 56.32l-24.064 41.472c-1.024 1.536-1.024 4.096 0.512 5.632 1.024 1.536 2.56 2.048 4.096 2.048h1.536l98.304-26.112c1.536-0.512 2.56-1.024 3.072-2.56s1.024-2.56 0.512-4.096l-26.112-98.304c-0.512-2.048-2.048-3.584-4.096-3.584h-0.512c-2.048 0-3.584 1.024-4.608 2.56l-23.552 40.96c-67.584-39.936-143.36-61.952-219.648-63.488h-1.024c-3.584-0.512-6.656-0.512-9.728-0.512z m378.88 228.864c-13.824 0-25.088 11.264-25.088 25.088 0 2.56 0.512 4.608 1.536 6.656 0 1.024 0 1.536 0.512 2.048 30.208 56.32 45.568 119.296 45.568 186.88 0 64-14.336 124.928-43.52 181.248-68.096 138.24-205.824 224.256-359.424 224.256-71.68 0-141.824-19.456-203.776-56.32l24.064-41.472c1.024-2.048 1.024-4.096-0.512-5.632-1.024-1.536-2.56-2.048-4.096-2.048h-1.536l-98.304 26.112c-1.536 0.512-2.56 1.024-3.072 2.56s-1.024 2.56-0.512 4.096l26.112 98.304c0.512 2.048 2.048 3.584 4.096 3.584h0.512c2.048 0 3.584-1.024 4.608-2.56l23.552-40.96c67.584 39.936 143.36 61.952 219.648 63.488h10.24c137.216 0 265.216-61.44 351.744-167.936 1.536-1.536 2.56-3.584 4.096-5.12 62.976-80.384 96.256-176.64 96.256-279.04v-6.656l-5.12-0.512h5.12c-1.024-68.096-17.92-135.168-50.176-199.68-2.56-9.728-11.776-16.384-22.528-16.384zM512 830.976c140.288 0 265.728-64.512 347.648-165.888 1.536-1.536 2.56-3.072 4.096-5.12 59.904-75.776 95.744-172.032 95.744-276.48V376.32c-1.024-71.168-19.968-138.24-50.176-198.144-2.56-7.68-9.728-13.312-18.432-13.312-10.752 0-19.968 8.704-19.968 19.968 0 2.048 0.512 4.096 1.536 6.144v0.512c30.208 56.32 46.08 120.832 46.08 189.44 0 66.048-15.872 128.512-44.032 183.296-66.048 134.144-204.288 226.816-364.032 226.816-76.8 0-148.992-22.016-210.432-59.392l26.624-45.568-98.304 26.112 26.112 98.304 26.112-45.568C346.112 805.376 421.376 829.44 502.272 830.976h9.728M133.12 602.112c10.752 0 19.968-8.704 19.968-19.968 0-2.048-0.512-4.096-1.536-6.144v-0.512c-30.208-56.32-46.08-120.832-46.08-189.44 0-66.048 15.872-128.512 44.032-183.296 66.048-134.144 204.288-226.816 364.032-226.816 76.8 0 148.992 22.016 210.432 59.392l-26.624 45.568 98.304-26.112-26.112-98.304-26.112 45.568c-65.024-39.424-140.288-63.488-221.184-65.536h-9.728c-140.288 0-265.728 64.512-347.648 165.888-1.536 1.536-2.56 3.072-4.096 5.12-59.904 75.776-95.744 172.032-95.744 276.48V391.168c1.024 71.168 19.968 138.24 50.176 198.144 2.048 7.68 9.728 12.8 17.92 12.8m378.88 239.104h-10.24c-75.264-1.536-150.528-23.04-217.6-61.44l-20.992 36.352c-2.048 3.072-5.12 5.12-8.704 5.12h-1.536c-4.096-0.512-7.68-3.584-8.704-7.68l-26.112-98.304c-1.536-5.632 2.048-11.264 7.168-12.288l98.304-26.112c1.024 0 1.536-0.512 2.56-0.512 3.072 0 6.144 1.536 8.192 4.096 2.56 3.072 2.56 7.68 0.512 11.264l-21.504 36.864c59.904 34.816 127.488 52.736 196.608 52.736 75.264 0 148.48-21.504 211.456-61.44 61.44-38.912 111.104-94.208 143.36-159.744 28.672-55.808 43.008-116.224 43.008-179.2 0-67.072-14.848-129.024-45.056-184.832-0.512-1.024-1.024-2.56-1.024-3.584-0.512-2.048-1.536-4.608-1.536-7.68 0-16.384 13.312-30.208 30.208-30.208 12.288 0 23.552 7.68 27.648 19.456 32.256 65.024 49.664 133.12 50.688 201.728v0.512 6.656c0 103.424-33.792 201.216-97.28 282.112-1.536 1.536-2.56 3.584-4.096 5.12-87.04 109.056-216.576 171.008-355.328 171.008zM133.12 612.352c-12.288 0-23.552-7.68-27.648-19.456-32.256-65.024-49.664-133.12-50.688-201.728V384c0-103.424 33.792-201.216 97.28-282.112 1.536-1.536 2.56-3.584 4.096-5.12 87.552-108.032 217.088-169.984 355.84-169.984h10.24c75.264 1.536 150.528 23.04 217.6 61.44l20.992-36.352c2.048-3.072 5.12-5.12 8.704-5.12h1.536c4.096 0.512 7.68 3.584 8.704 7.68l26.112 98.304c1.536 5.632-2.048 11.264-7.168 12.288l-98.304 26.112c-1.024 0-1.536 0.512-2.56 0.512-3.072 0-6.144-1.536-8.192-4.096-2.56-3.072-2.56-7.68-0.512-11.264l21.504-36.864c-59.904-34.816-127.488-52.736-196.608-52.736-75.264 0-148.48 21.504-211.456 61.44-61.44 38.912-111.104 94.208-143.36 159.744-28.672 55.808-43.008 116.224-43.008 179.2 0 67.072 14.848 129.024 45.056 184.832 0.512 1.024 1.024 2.56 1.024 3.584 0.512 2.048 1.536 4.608 1.536 7.68-0.512 15.872-13.824 29.184-30.72 29.184z"  horiz-adv-x="1024" />

    
    <glyph glyph-name="jiaobenhui" unicode="&#59155;" d="M512.420016 383.579984m-511.579983 0a511.579984 511.579984 0 1 1 1023.159967 0 511.579984 511.579984 0 1 1-1023.159967 0ZM278.890894 385.260049L394.815422 270.175554 348.613618 223.973749 231.849057 339.058244l-46.201805 46.201805 162.126333 162.126333L394.815422 501.184578 278.890894 385.260049z m466.218212 0L629.184578 270.175554l46.201804-46.201805 115.924529 115.924528 46.201804 46.201805-161.2863 162.126333-47.041837-47.041837 115.924528-115.924529zM515.780148 512.945037h65.522559l-67.202625-292.331419h-65.522559l67.202625 292.331419z"  horiz-adv-x="1024" />

    
    <glyph glyph-name="jiaoben1" unicode="&#59156;" d="M511.579984 384.420016m-511.579984 0a511.579984 511.579984 0 1 1 1023.159967 0 511.579984 511.579984 0 1 1-1023.159967 0ZM278.890894 386.100082L394.815422 270.175554 348.613618 223.973749 231.849057 339.058244l-46.201805 46.201805 162.126333 162.126333L394.815422 501.184578 278.890894 386.100082z m466.218212 0L629.184578 270.175554l46.201804-46.201805 115.924529 115.924528 46.201804 46.201805-161.2863 162.126333-47.041837-47.041837 115.924528-115.084496zM515.780148 512.945037h65.522559l-67.202625-292.331419h-65.522559l67.202625 292.331419z"  horiz-adv-x="1024" />

    
    <glyph glyph-name="fuwu" unicode="&#59157;" d="M512.420016 383.57998399999997m-511.579983 0a511.579984 511.579984 0 1 1 1023.159967 0 511.579984 511.579984 0 1 1-1023.159967 0ZM810.631665 316.37735799999996H730.828548v78.963085c0 23.520919-18.480722 42.001641-42.001641 42.001641H537.621001v81.483183h84.003281c23.520919 0 42.001641 18.480722 42.001641 42.00164v109.204266c0 23.520919-18.480722 42.001641-42.001641 42.001641H402.375718c-23.520919 0-42.001641-18.480722-42.001641-42.001641v-109.204266c0-23.520919 18.480722-42.001641 42.001641-42.00164H487.219032v-81.483183H336.013126c-23.520919 0-42.001641-18.480722-42.001641-42.001641V316.37735799999996h-79.803117c-23.520919 0-42.001641-18.480722-42.001641-42.00164v-109.204266c0-23.520919 18.480722-42.001641 42.001641-42.001641h220.088597c23.520919 0 42.001641 18.480722 42.00164 42.001641V274.375718c0 23.520919-18.480722 42.001641-42.00164 42.00164H344.413454v70.562757h336.013125V316.37735799999996H590.543068c-23.520919 0-42.001641-18.480722-42.001641-42.00164v-109.204266c0-23.520919 18.480722-42.001641 42.001641-42.001641h220.088597c23.520919 0 42.001641 18.480722 42.001641 42.001641V274.375718c0 23.520919-19.320755 42.001641-42.001641 42.00164zM410.776046 661.630845H613.223954v-92.40361H410.776046v92.40361zM425.056604 173.57178H222.608696V265.97538999999995h203.287941v-92.40361z m377.174733 0H598.943396V265.97538999999995h203.287941v-92.40361z"  horiz-adv-x="1024" />

    
    <glyph glyph-name="renwu" unicode="&#59158;" d="M512.420016 383.579984m-511.579983 0a511.579984 511.579984 0 1 1 1023.159967 0 511.579984 511.579984 0 1 1-1023.159967 0ZM819.872026 393.660377C781.230517 439.862182 741.748975 479.343724 695.54717 517.985234c31.081214 50.401969 58.802297 84.843314 84.003281 109.204266 7.560295 7.560295 10.920427 17.640689 8.400328 28.561115s-10.080394 18.480722-20.160787 21.840853c-85.683347 25.200984-153.726005-2.520098-214.208368-26.88105-49.561936-20.160788-96.603774-39.481542-153.726005-31.081214v3.360132c7.560295 7.560295 12.600492 17.640689 12.600493 29.401148 0 10.920427-4.200164 21.840853-11.76046 29.401148-7.560295 7.560295-18.480722 11.760459-29.401148 11.76046-22.680886 0-41.161608-18.480722-41.161608-41.161608 0-10.920427 4.200164-21.840853 11.760459-29.401148V601.988515c-0.840033-2.520098-0.840033-5.040197-0.840033-6.720262l0.840033-74.762921v-419.176374h-20.160787c-16.800656 0-30.241181-13.440525-30.241182-30.241181s13.440525-30.241181 30.241182-30.241181h99.963905c16.800656 0 30.241181 13.440525 30.241181 30.241181s-13.440525 30.241181-30.241181 30.241181h-21.000821V285.296144c14.280558-1.680066 27.721083-3.360131 40.321575-3.360131 63.002461 0 114.244463 21.00082 162.126333 40.321575 61.322395 25.200984 114.244463 46.201805 184.807219 24.360952 12.600492-4.200164 26.041017 0.840033 32.76128 11.760459 7.560295 10.920427 6.720263 25.200984-0.840033 35.281378z m-238.569319-16.800656c-56.282199-22.680886-109.204266-43.681706-177.246924-32.76128l-2.520098 214.208368c68.882691-7.560295 125.164889 15.960623 175.566858 36.121411 42.841674 17.640689 80.64315 33.601313 124.324857 32.76128-21.840853-26.88105-43.681706-59.64233-68.882691-101.643971-7.560295-12.600492-4.200164-29.401148 6.720262-37.801476 30.241181-23.520919 57.122231-47.88187 82.323216-73.082855-52.082034-1.680066-96.603774-20.160788-140.28548-37.801477z"  horiz-adv-x="1024" />

    
    <glyph glyph-name="danjiaoben" unicode="&#59159;" d="M306.942065 390.448363l355.949623-355.949622-141.86398-144.443325L165.078086 246.005038 23.214106 387.869018 521.027708 888.261965l141.86398-141.86398-355.949623-355.949622z m1434.11587 0L1385.108312 34.498741l141.86398-141.86398L1882.921914 246.005038l141.86398 141.86398L1526.972292 888.261965l-141.86398-141.86398 355.949623-355.949622zM1034.31738 779.929471h201.188917l-206.347607-897.612091h-201.188917l206.347607 897.612091z"  horiz-adv-x="2048" />

    
    <glyph glyph-name="chenggong" unicode="&#59160;" d="M12.865927 271.919032a510.85406 510.85406 0 1 1 996.81339 224.166336 510.85406 510.85406 0 1 1-996.81339-224.166336ZM742.869787 490.629251L721.898767 511.600271c-9.227249 9.227249-25.165225 8.388408-36.070155-2.516522L462.696953 285.952091l-100.660898 99.822057c-10.06609 10.06609-26.842906 10.904931-36.908996 1.677682L304.156038 366.480809c-9.227249-9.227249-8.388408-25.165225 2.516523-36.070155l117.437715-116.598874 20.97102-20.97102c9.227249-9.227249 25.165225-9.227249 36.070155 1.677681l260.040655 259.201814c10.904931 10.904931 11.743771 27.681747 1.677681 36.908996z"  horiz-adv-x="1024" />

    
    <glyph glyph-name="yichang" unicode="&#59161;" d="M12.865927 271.919032a510.85406 510.85406 0 1 1 996.81339 224.166336 510.85406 510.85406 0 1 1-996.81339-224.166336ZM511.349721 215.489462c-25.165225 0-45.297404-20.13218-45.297404-45.297404 0-25.165225 20.13218-45.297404 45.297404-45.297405 25.165225 0 45.297404 20.13218 45.297404 45.297405 0 24.326384-20.13218 45.297404-45.297404 45.297404zM496.250586 289.307454h31.037111c14.260294 0 26.004065 13.421453 26.004065 31.03711V611.422329c0 16.776816-11.743771 31.03711-26.004065 31.03711h-31.037111c-14.260294 0-25.165225-14.260294-25.165224-31.03711v-291.077765c0-17.615657 10.904931-31.03711 25.165224-31.03711z"  horiz-adv-x="1024" />

    
    <glyph glyph-name="info" unicode="&#59162;" d="M614.914812 573.608678a80.682229 80.682229 0 0 0-55.409906-21.01522 82.91214 82.91214 0 0 0-55.950491 21.01522 69.735394 69.735394 0 0 0 0 103.724642 80.276791 80.276791 0 0 0 55.950491 21.555805 78.114453 78.114453 0 0 0 55.409906-21.555805A68.451506 68.451506 0 0 0 637.957224 625.707505 69.19481 69.19481 0 0 0 614.914812 573.608678z m5.608564-471.051775c-26.150773-10.271105-47.301139-18.447444-63.113235-23.65057a162.175335 162.175335 0 0 0-54.936895-8.17634c-31.82691 0-56.964086 7.703328-74.330361 23.042413a75.749396 75.749396 0 0 0-26.691358 59.531862 185.555613 185.555613 0 0 0 2.094765 28.245538 230.356549 230.356549 0 0 0 6.149148 32.840505l33.313517 116.495949c2.567776 11.2847 5.135552 22.096389 7.230317 31.82691a140.214092 140.214092 0 0 1 3.108361 27.704953c0 14.393061-3.108361 25.137177-9.257509 30.813313S425.710255 429.745641 408.479125 429.745641a78.04688 78.04688 0 0 1-26.150773-4.121956c-7.770901-2.229911-15.47423-4.594968-23.109985-7.230317l8.716924 35.408281q30.543021 12.906454 62.099639 22.636974a177.446846 177.446846 0 0 0 55.950491 9.73052Q533.827145 486.439436 559.910344 463.53217a76.560273 76.560273 0 0 0 25.610189-59.531863c0-5.135552-0.540584-13.92005-1.554181-27.029223a236.505697 236.505697 0 0 0-6.757305-35.340708L544.436114 225.675011a238.195023 238.195023 0 0 1-7.162744-31.826909 136.700293 136.700293 0 0 1-3.581372-27.029223c0-15.406657 3.581372-25.677761 10.744116-31.286325s18.515017-8.784497 35.948866-8.784497a117.509545 117.509545 0 0 1 27.029223 4.121957 224.004682 224.004682 0 0 1 21.961243 7.703328l-9.122362-35.881293zM513.555228 895.99973a512.001047 512.001047 0 1 1 513.555227-512.203767A513.014643 513.014643 0 0 1 513.555228 895.99973z"  horiz-adv-x="1027" />

    
    <glyph glyph-name="jiankong" unicode="&#59163;" d="M512 421.693252m-328.768916 0a328.768916 328.768916 0 1 1 657.537832 0 328.768916 328.768916 0 1 1-657.537832 0ZM949.137014 453.627812C949.137014 694.969325 753.341513 890.764826 512 890.764826S74.862986 694.969325 74.862986 453.627812c0-188.466258 119.361963-349.186094 286.364008-410.437628-89.521472-34.02863-148.155419-95.803681-148.155419-165.431493h585.815951c0 69.104294-53.398773 130.879346-138.208589 164.907976 168.572597 60.204499 288.458078 221.447853 288.458077 410.961145z m-206.789366-67.010225c0-127.214724-103.132924-230.347648-229.824131-230.347648-125.120654 0-229.824131 105.226994-229.82413 229.824131 0 125.120654 104.703476 229.824131 229.82413 229.82413 126.167689 1.047035 229.300613-102.08589 229.824131-229.300613zM512 497.603272c-59.680982 0-111.509202-51.828221-111.509202-111.509202 0-63.869121 51.828221-111.509202 111.509202-111.509203 61.251534 0 110.985685 49.734151 110.985685 111.509203 0.523517 61.775051-49.210634 111.509202-110.985685 111.509202z"  horiz-adv-x="1024" />

    
    <glyph glyph-name="menu-pingtai" unicode="&#59164;" d="M512 395.985455m-401.454545 0a401.454545 401.454545 0 1 1 802.90909 0 401.454545 401.454545 0 1 1-802.90909 0ZM512-28.741818A424.727273 424.727273 0 1 0 936.727273 395.636364 425.192727 425.192727 0 0 0 512-28.741818z m0 802.909091A378.181818 378.181818 0 1 1 890.181818 395.636364 378.647273 378.647273 0 0 1 512 774.167273zM512 251.229091C334.894545 251.229091 0 279.272727 0 384s334.894545 132.770909 512 132.770909S1024 488.727273 1024 384 689.105455 251.229091 512 251.229091z m0 218.996364c-307.083636 0-465.454545-60.509091-465.454545-86.225455s158.370909-86.225455 465.454545-86.225455 465.454545 60.509091 465.454545 86.225455-158.370909 86.225455-465.454545 86.225455zM512-128c-104.727273 0-132.770909 334.894545-132.770909 512S407.272727 896 512 896s132.770909-334.894545 132.770909-512S616.727273-128 512-128z m0 977.454545c-25.832727 0-86.225455-158.370909-86.225455-465.454545S486.167273-81.454545 512-81.454545s86.225455 158.370909 86.225455 465.454545S537.716364 849.454545 512 849.454545z"  horiz-adv-x="1024" />

    
    <glyph glyph-name="menu-yinhang" unicode="&#59165;" d="M1286.793631-128H31.970028a31.970028 31.970028 0 0 0 0 63.940056h1254.823603a31.970028 31.970028 0 0 0 0-63.940056zM180.790509 489.341243h223.790197v-575.460506h-223.790197zM436.550734-118.089291h-287.730253v639.400562h287.730253z m-223.790197 63.940056h159.85014v511.520449h-159.85014zM914.182953 489.341243h223.790197v-575.460506h-223.790197zM1169.943178-118.089291h-287.730253v639.400562h287.730253z m-223.790196 63.940056h159.85014v511.520449h-159.85014zM38.044333 491.419294v95.910085L657.463628 860.992819l623.415548-273.66344v-95.910085H38.044333zM1312.689354 459.449266H6.074305V608.269747L657.463628 896l655.385576-287.730253z m-1242.674992 63.940057h1178.734936v42.999687l-591.44552 259.756479L70.014362 566.54886z"  horiz-adv-x="1318" />

    
    <glyph glyph-name="menu-shoucang" unicode="&#59166;" d="M28.051271 685.486854V839.768843a28.051271 28.051271 0 0 0 28.051271 28.051271h648.685637a39.412036 39.412036 0 0 0 42.076907-28.051271l56.102541-154.281989zM843.080944 657.435583H0V839.768843a56.102542 56.102542 0 0 0 56.102542 56.102542h648.685637a67.743819 67.743819 0 0 0 68.725614-47.126135zM56.102542 713.538125h706.751768l-42.918444 118.236106c-0.981794 3.366152-2.384358 7.994612-15.147687 7.994612H56.102542zM1206.204645 627.56098V-71.897458a28.051271 28.051271 0 0 0-28.051271-28.051271H56.102542a28.051271 28.051271 0 0 0-28.051271 28.051271V685.486854h1120.2275A57.925874 57.925874 0 0 0 1206.204645 627.56098zM1178.153374-128H56.102542a56.102542 56.102542 0 0 0-56.102542 56.102542V713.538125h1148.278771A86.117401 86.117401 0 0 0 1234.255916 627.56098V-71.897458a56.102542 56.102542 0 0 0-56.102542-56.102542zM56.102542 657.435583v-729.333041h1122.050832V627.56098A29.874603 29.874603 0 0 1 1148.278771 657.435583zM617.127958 455.045664l39.131523-79.385096A76.018944 76.018944 0 0 1 713.063304 334.845969l87.519965-12.763329-63.395872-61.712795A75.457919 75.457919 0 0 1 715.307406 193.187051l15.00743-87.099196-78.122789 41.095112a75.037149 75.037149 0 0 1-70.128177 0l-78.403302-41.095112L518.94851 193.187051a75.457919 75.457919 0 0 1-21.599478 66.762024l-63.395872 61.712796 87.239452 13.184098a76.018944 76.018944 0 0 1 56.803823 41.235368L617.127958 455.045664m0 102.527395a19.074864 19.074864 0 0 1-17.251532-10.799739l-72.232022-146.287378a19.63589 19.63589 0 0 0-14.025635-10.519226l-161.855833-23.422811a19.355377 19.355377 0 0 1-10.799739-32.819987l116.833543-113.88816a19.074864 19.074864 0 0 0 5.610254-17.111275l-28.051271-160.733782a19.355377 19.355377 0 0 1 19.074864-22.581273 19.776146 19.776146 0 0 1 8.976407 2.244102l144.323788 75.878687a19.074864 19.074864 0 0 0 17.952814 0l144.323788-75.878687a19.776146 19.776146 0 0 1 8.976407-2.244102 19.355377 19.355377 0 0 1 19.074864 22.581273L771.409948 202.724483a19.074864 19.074864 0 0 0 5.610254 17.111275l116.833543 113.88816a19.355377 19.355377 0 0 1-10.79974 32.819987l-161.996089 23.422811a19.63589 19.63589 0 0 0-14.025635 10.519226l-72.652791 146.287378a19.074864 19.074864 0 0 1-17.251532 10.799739z"  horiz-adv-x="1234" />

    
    <glyph glyph-name="menu-cijixitong" unicode="&#59167;" d="M617.205479-123.651507a28.054795 28.054795 0 0 0-28.054794 28.054795V639.158356a28.054795 28.054795 0 0 0 56.109589 0v-734.755068a28.054795 28.054795 0 0 0-28.054795-28.054795zM28.054795 867.945205m28.054794 0l1122.191781 0q28.054795 0 28.054794-28.054794l0-701.369863q0-28.054795-28.054794-28.054795l-1122.191781 0q-28.054795 0-28.054794 28.054795l0 701.369863q0 28.054795 28.054794 28.054794ZM1178.30137 82.410959H56.109589a56.109589 56.109589 0 0 0-56.109589 56.109589V839.890411a56.109589 56.109589 0 0 0 56.109589 56.109589h1122.191781a56.109589 56.109589 0 0 0 56.109589-56.109589v-701.369863a56.109589 56.109589 0 0 0-56.109589-56.109589z m0 56.109589zM56.109589 839.890411v-701.369863h1122.191781V839.890411zM219.248219 698.494247m28.054795 0l739.945205 0q28.054795 0 28.054795-28.054795l0-364.712329q0-28.054795-28.054795-28.054794l-739.945205 0q-28.054795 0-28.054795 28.054794l0 364.712329q0 28.054795 28.054795 28.054795ZM984.583014-128H249.827945a28.054795 28.054795 0 1 0 0 56.109589h734.755069a28.054795 28.054795 0 0 0 0-56.109589z"  horiz-adv-x="1234" />

    
    <glyph glyph-name="menu-xitong" unicode="&#59168;" d="M28.054795 867.945205m28.054794 0l1122.191781 0q28.054795 0 28.054794-28.054794l0-701.369863q0-28.054795-28.054794-28.054795l-1122.191781 0q-28.054795 0-28.054794 28.054795l0 701.369863q0 28.054795 28.054794 28.054794ZM1178.30137 82.410959H56.109589a56.109589 56.109589 0 0 0-56.109589 56.109589V839.890411a56.109589 56.109589 0 0 0 56.109589 56.109589h1122.191781a56.109589 56.109589 0 0 0 56.109589-56.109589v-701.369863a56.109589 56.109589 0 0 0-56.109589-56.109589z m0 56.109589zM56.109589 839.890411v-701.369863h1122.191781V839.890411zM984.583014-128H249.827945a28.054795 28.054795 0 1 0 0 56.109589h734.755069a28.054795 28.054795 0 0 0 0-56.109589zM617.205479-128a28.054795 28.054795 0 0 0-28.054794 28.054795V89.424658a28.054795 28.054795 0 0 0 56.109589 0V-99.945205a28.054795 28.054795 0 0 0-28.054795-28.054795zM1187.699726 276.409863H46.711233a28.054795 28.054795 0 1 0 0 56.109589h1140.988493a28.054795 28.054795 0 0 0 0-56.109589z"  horiz-adv-x="1234" />

    
    <glyph glyph-name="menu-fenlei" unicode="&#59169;" d="M28.051271 685.486854V839.768843a28.051271 28.051271 0 0 0 28.051271 28.051271h648.685637a39.412036 39.412036 0 0 0 42.076907-28.051271l56.102541-154.281989zM843.080944 657.435583H0V839.768843a56.102542 56.102542 0 0 0 56.102542 56.102542h648.685637a67.743819 67.743819 0 0 0 68.725614-47.126135zM56.102542 713.538125h706.751768l-42.918444 118.236106c-0.981794 3.366152-2.384358 7.994612-15.147687 7.994612H56.102542zM1206.204645 627.56098V-71.897458a28.051271 28.051271 0 0 0-28.051271-28.051271H56.102542a28.051271 28.051271 0 0 0-28.051271 28.051271V685.486854h1120.2275A57.925874 57.925874 0 0 0 1206.204645 627.56098zM1178.153374-128H56.102542a56.102542 56.102542 0 0 0-56.102542 56.102542V713.538125h1148.278771A86.117401 86.117401 0 0 0 1234.255916 627.56098V-71.897458a56.102542 56.102542 0 0 0-56.102542-56.102542zM56.102542 657.435583v-729.333041h1122.050832V627.56098A29.874603 29.874603 0 0 1 1148.278771 657.435583z"  horiz-adv-x="1234" />

    
    <glyph glyph-name="loading" unicode="&#59170;" d="M982.329553 426.012008h-213.134089a42.353569 42.353569 0 1 1 0-84.707138h213.134089a42.353569 42.353569 0 0 1 0 84.707138zM299.207472 383.658439a42.558506 42.558506 0 0 1-42.353569 42.353569H42.353569a42.353569 42.353569 0 1 1 0-84.707138h213.134089a42.900067 42.900067 0 0 1 43.719814 42.353569zM512.341561 169.841227a42.558506 42.558506 0 0 1-42.353569-42.353569v-213.134089a42.353569 42.353569 0 1 1 84.707138 0v213.134089a42.558506 42.558506 0 0 1-42.353569 42.353569zM512.341561 896a42.558506 42.558506 0 0 1-42.353569-42.353569v-213.134089a42.353569 42.353569 0 1 1 84.707138 0V852.963309A42.69513 42.69513 0 0 1 512.341561 896zM697.467645 490.225484a42.421881 42.421881 0 0 1 58.065377-15.711808l185.126084 106.567044a42.968379 42.968379 0 0 1-43.036691 74.460307l-185.126084-106.567044a43.173316 43.173316 0 0 1-15.028686-58.748499zM327.215477 277.091394a43.105003 43.105003 0 0 1-58.748499 15.711808l-185.126084-106.567045a42.968379 42.968379 0 0 1 43.036691-74.460306l185.126084 106.567044a42.831755 42.831755 0 0 1 15.711808 58.748499zM677.657105 183.503669a42.968379 42.968379 0 1 1-74.460307-43.036691l106.567045-185.126084a42.968379 42.968379 0 0 1 74.460306 43.036691zM314.91928 811.975984a43.241628 43.241628 0 0 1-58.748499 15.711808 42.421881 42.421881 0 0 1-15.711808-58.065377l106.567044-185.126084a42.968379 42.968379 0 0 1 74.460307 43.036691zM618.908606 568.784523a43.446564 43.446564 0 0 1 58.748499 15.711808l106.567044 185.126084a42.968379 42.968379 0 0 1-74.460306 43.036691L603.196798 627.533022a43.105003 43.105003 0 0 1 15.711808-58.748499zM405.774516 198.532355a43.446564 43.446564 0 0 1-58.748499-15.711808l-106.567044-185.126084a42.421881 42.421881 0 0 1 15.711808-58.065377 43.446564 43.446564 0 0 1 58.748499 15.711808l106.567044 185.126084a42.421881 42.421881 0 0 1-15.711808 58.065377zM940.659106 186.236157l-185.126084 106.567045a42.968379 42.968379 0 0 1-43.036691-74.460307l185.126084-106.567044a42.968379 42.968379 0 1 1 43.036691 74.460306zM84.024016 581.08072l185.126084-106.567044a43.446564 43.446564 0 0 1 58.748499 15.711808 42.831755 42.831755 0 0 1-15.711808 58.748499L127.060707 655.541027a42.968379 42.968379 0 1 1-43.036691-74.460307z"  horiz-adv-x="1024" />

    
    <glyph glyph-name="more" unicode="&#59171;" d="M512-128A512 512 0 1 0 1024 384 512.623756 512.623756 0 0 0 512-128z m0 956.426396A444.426396 444.426396 0 1 1 956.426396 384 444.946193 444.946193 0 0 1 512 828.426396zM281.57401 384m-58.892995 0a58.892995 58.892995 0 1 1 117.78599 0 58.892995 58.892995 0 1 1-117.78599 0ZM512 384m-58.892995 0a58.892995 58.892995 0 1 1 117.78599 0 58.892995 58.892995 0 1 1-117.78599 0ZM742.42599 384m-58.892995 0a58.892995 58.892995 0 1 1 117.78599 0 58.892995 58.892995 0 1 1-117.78599 0Z"  horiz-adv-x="1024" />

    
    <glyph glyph-name="ceshi1" unicode="&#59172;" d="M910.846023 896H113.153977A113.312124 113.312124 0 0 1 0 782.846023v-797.692046a113.312124 113.312124 0 0 1 113.153977-113.153977h797.692046a113.312124 113.312124 0 0 1 113.153977 113.153977V782.846023A113.312124 113.312124 0 0 1 910.846023 896z m34.080618-910.846023a34.080618 34.080618 0 0 0-34.080618-34.080618H113.153977a34.080618 34.080618 0 0 0-34.080618 34.080618V782.846023A34.080618 34.080618 0 0 0 113.153977 816.926641h797.692046a34.080618 34.080618 0 0 0 34.080618-34.080618zM663.504556 413.098996a11.940077 11.940077 0 0 1-2.055907 0.94888L459.653436 570.059614a31.629344 31.629344 0 0 1-30.83861 4.428108l-10.516757-4.111815a31.629344 31.629344 0 0 1-20.084633-29.415289v-318.03305a31.629344 31.629344 0 0 1 31.629344-31.629344h10.516757a31.629344 31.629344 0 0 1 19.293899 6.642162l201.795213 156.011738a11.940077 11.940077 0 0 1 2.055907 0.94888 31.629344 31.629344 0 0 1 17.712432 28.387336v1.42332a31.629344 31.629344 0 0 1-17.712432 28.387336z"  horiz-adv-x="1024" />

    
    <glyph glyph-name="del" unicode="&#59173;" d="M628.340998 11.879017a46.839999 46.839999 0 0 1 46.839999 46.547999V616.770005a46.547999 46.547999 0 0 1-93.094998 0V58.250016a46.839999 46.839999 0 0 1 46.254999-46.371999z m-232.681996 0a46.839999 46.839999 0 0 1 46.839999 46.547999V616.770005a46.547999 46.547999 0 0 1-93.094998 0V58.250016a46.839999 46.839999 0 0 1 46.254999-46.371999zM977.422991 802.904002h-395.629992V849.159001A46.489999 46.489999 0 0 1 534.952 895.707h-46.197a46.839999 46.839999 0 0 1-46.839999-46.839999v-46.840999H46.870009a46.547999 46.547999 0 0 1 0-92.217998h69.499999v-744.769986A93.037998 93.037998 0 0 1 209.467006-127.99998h605.065988a93.037998 93.037998 0 0 1 93.037998 93.037998v744.769986h69.792999a46.839999 46.839999 0 0 1 0 93.095998z m-162.889997-791.024985a46.839999 46.839999 0 0 0-46.839999-46.548999H256.015005a46.839999 46.839999 0 0 0-46.547999 46.548999V709.808004h605.065988z"  horiz-adv-x="1024" />

    
    <glyph glyph-name="paixu" unicode="&#59174;" d="M330.37508 896a47.879029 47.879029 0 0 1-47.539461-47.539461v-797.64425L87.244691 283.691736a47.539461 47.539461 0 0 1-73.142857-61.122164l279.735774-333.319539a54.942035 54.942035 0 0 1 6.044303-5.908476 33.549277 33.549277 0 0 1 3.056108-2.376973l0.747049-0.475394 2.648627-1.629925 1.562011-0.882876 1.833665-0.882875a19.491179 19.491179 0 0 1 2.716541-1.222444h0.814962a46.724499 46.724499 0 0 1 28.252023-1.697837 47.539461 47.539461 0 0 1 19.423265 9.711632 46.181191 46.181191 0 0 1 13.039396 17.793342v0.407481c0.407481 0.882876 0.679135 1.833665 1.018702 2.784454s0.475395 1.35827 0.679135 2.037405 0 0.814962 0 1.290357a45.909537 45.909537 0 0 1 1.697838 12.292347V848.460539a47.879029 47.879029 0 0 1-46.996153 47.539461zM1009.849811 545.702083L730.249864 879.021621a49.033559 49.033559 0 0 1-5.976389 5.908476 34.432153 34.432153 0 0 1-3.124022 2.376973l-0.679135 0.475395c-0.882876 0.611222-1.765751 1.086616-2.648627 1.629924L716.123853 890.431092a15.212628 15.212628 0 0 1-1.833665 0.882875 23.022682 23.022682 0 0 1-2.648627 1.222444h-0.882876a46.520759 46.520759 0 0 1-28.59159 2.037405 48.558164 48.558164 0 0 1-19.423266-9.711633 46.588672 46.588672 0 0 1-13.107309-17.861254c-0.407481-1.018703-0.747049-2.037405-1.086616-3.056109A18.132909 18.132909 0 0 1 648.210337 862.043242a14.261838 14.261838 0 0 1-0.407481-1.629925c0-1.086616-0.543308-2.105319-0.747049-3.191935A52.225494 52.225494 0 0 1 646.037104 848.460539v-928.717337a47.539461 47.539461 0 0 1 95.486404 0V717.047884l195.25136-232.73962a47.539461 47.539461 0 1 1 73.074943 61.122164z"  horiz-adv-x="1024" />

    
    <glyph glyph-name="tuozhuai" unicode="&#59175;" d="M929.925227 430.556373h-371.32911V736.772664l141.387837-141.387838a46.509157 46.509157 0 0 1 65.782552 65.856966L545.127065 881.955648a17.859516 17.859516 0 0 1-1.785952 1.637123s-0.446488 0.446488-0.744146 0.595317l-0.967391 0.892976-1.041805 0.818561s-0.446488 0.446488-0.744147 0.595317L538.876234 887.387918l-0.744147 0.446488-1.488293 0.669732-0.669731 0.595317-1.339464 0.744146-0.744147 0.446488a5.060196 5.060196 0 0 0-1.116219 0.595318l-0.892976 0.446488-1.190635 0.372073-0.96739 0.446488-1.041805 0.446488-1.190635 0.446487h-0.818561l-1.339464 0.744147h-2.902171a5.28344 5.28344 0 0 1-1.488293 0H517.891302L516.551839 895.945603a3.274245 3.274245 0 0 0-1.190635 0 2.530098 2.530098 0 0 0-1.041805 0h-4.613708A2.23244 2.23244 0 0 1 509.110373 895.945603a2.902171 2.902171 0 0 1-1.116219 0h-1.339464a1.860366 1.860366 0 0 1-0.892976 0 5.357855 5.357855 0 0 1-1.413878 0h-0.744147L501.668908 894.606139h-2.976586l-1.265049-0.446488h-0.892976l-1.116219-0.446488-1.190635-1.562707-0.744146-0.446488-1.11622-0.520903-0.892976-0.446488a8.855344 8.855344 0 0 1-1.190634-0.595317l-0.669732-0.446488-1.339464-0.744146a2.08361 2.08361 0 0 1-0.595317-0.446488l-0.892976-0.818561-0.595317-0.446488a8.260026 8.260026 0 0 1-1.190635-0.892976s-0.446488-0.446488-0.744146-0.595317l-0.967391-0.818562a3.943977 3.943977 0 0 0-0.892975-0.744146s-0.595317-0.446488-0.744147-0.744147l-2.306854-1.562707-220.713856-220.9371a46.583572 46.583572 0 0 1 65.856966-65.856967l141.387838 141.387838v-305.918632h-372.073257a46.509157 46.509157 0 0 1 0-93.018314h371.32911v-306.21629l-141.387837 141.387837a46.583572 46.583572 0 1 1-65.559308-65.559308L479.344513-113.861216l1.711537-1.637123s0.595317-0.446488 0.744146-0.744146l0.892976-0.669732a11.459856 11.459856 0 0 0 0.967391-0.892976s0.446488-0.446488 0.744146-0.595317l1.190635-0.892976h0.595317l1.265049-0.892976 0.595317-0.446488 1.339464-0.744146 0.669732-0.446488 1.190634-0.520902 0.892976-0.446488a3.274245 3.274245 0 0 0 1.11622-0.595318l1.041805-0.446488 1.041805-0.446487 1.11622-0.446488h0.892975l1.339464-0.372074h0.669732l1.488293-0.446488h0.744147a4.836952 4.836952 0 0 1 1.413878 0H507.398836a2.678927 2.678927 0 0 0 1.11622 0 2.530098 2.530098 0 0 0 1.041805 0h2.306854c0.744147 0 2.08361 0.446488 2.753343 0.446488a2.23244 2.23244 0 0 1 1.041805 0 3.274245 3.274245 0 0 1 1.190634 0h1.265049a1.860366 1.860366 0 0 1 0.892976 0 5.28344 5.28344 0 0 1 1.488293 0h2.902171a6.474075 6.474075 0 0 0 1.413879 0.372074h0.744146l1.339464 0.446488h0.818561l1.190635 0.446487 1.041805 0.446488 0.96739 0.446488 1.190635 0.446488h0.892975l1.11622 0.595317 0.744147 0.446488 1.339463 0.744147 0.669732 0.446488 1.339464 0.818561 0.744147 0.446488 1.116219 0.892976s0.446488 0.446488 0.744147 0.595317l1.041805 0.892976 0.96739 0.818561s0.446488 0.446488 0.744147 0.595317l1.785952 1.637122L765.98975 107.150298a46.509157 46.509157 0 0 1-65.782552 65.856967l-141.387837-141.834326V337.835718h371.32911a46.509157 46.509157 0 0 1 0 93.018314z"  horiz-adv-x="1024" />

    
    <glyph glyph-name="server" unicode="&#59309;" d="M511.639183 896a511.639183 511.639183 0 1 1 511.639182-511.639183A511.639183 511.639183 0 0 1 511.639183 896z m319.684284-738.232558H619.162791V369.928118h86.596194v43.298098H318.96265v-44.019733H404.115574v-212.160676H192.676533V369.928118h106.801973V434.153629h200.614517v72.163496H404.115574V714.869626h211.439042v-212.160676H519.577167v-72.163495h205.665962v-64.225511h106.080338z"  horiz-adv-x="1024" />

    
    <glyph glyph-name="publish" unicode="&#59310;" d="M511.639183 896a511.639183 511.639183 0 1 1 511.639182-511.639183A511.639183 511.639183 0 0 1 511.639183 896zM378.136716 159.932347V276.115574l80.10148-59.895701z m413.496829 432.980972L642.976744 184.467935l-14.432699-34.638478s-8.659619-17.319239-41.854827 4.32981l-209.995772 158.75969 266.283298 205.665962L341.333333 340.341085 243.912615 421.1642s-28.865398 27.422128 0 36.081748l520.298801 167.419309c17.319239 2.88654 29.587033-17.319239 29.587034-28.143763z"  horiz-adv-x="1024" />

    
    <glyph glyph-name="shell" unicode="&#59311;" d="M511.639183 896a511.639183 511.639183 0 1 1 511.639182-511.639183A511.639183 511.639183 0 0 1 511.639183 896zM277.107822 164.262156L216.490486 227.044397l155.151515 157.31642L216.490486 541.677237 277.107822 607.346018l216.490487-216.490486z m547.720931 13.711065H524.628612V268.17759h300.921776z"  horiz-adv-x="1024" />

    
    <glyph glyph-name="to-approval" unicode="&#59312;" d="M376.685507 366.681559l-42.54525-42.54525 120.424692-121.866904 243.012702 243.012702-43.266357 42.54525-199.746345-199.746345-77.879442 78.600547zM515.858954 895.973319a511.985217 511.985217 0 1 1 177.392061-990.799561 268.972516 268.972516 0 0 0-134.846811 175.949849H303.132701a60.572899 60.572899 0 0 0-60.572898 60.572899V566.427905a60.572899 60.572899 0 0 0 60.572898 60.572898h126.914646a90.859348 90.859348 0 0 0 170.902108 0H724.979676a60.572899 60.572899 0 0 0 60.572899-60.572898v-159.364413a263.203668 263.203668 0 0 0 31.728662 0A267.530304 267.530304 0 0 0 1022.075324 319.088567a504.774158 504.774158 0 0 1-504.774158 576.884752zM515.858954 596.714354m-30.28645 0a30.286449 30.286449 0 1 1 60.572899 0 30.286449 30.286449 0 1 1-60.572899 0ZM820.16566 365.960453a223.542841 223.542841 0 0 1-72.110594-432.663564A511.985217 511.985217 0 0 1 1013.422052 257.794562a222.821735 222.821735 0 0 1-193.256392 108.165891z m64.178429-300.701177H676.665578a17.306543 17.306543 0 0 0-15.86433 21.633179 121.866904 121.866904 0 0 0 95.185984 97.349301h-7.21106a62.736217 62.736217 0 1 0 62.736217 0l-7.211059-3.605529a123.309116 123.309116 0 0 0 95.185984-97.349302 17.306543 17.306543 0 0 0-15.143225-18.027649z"  horiz-adv-x="1028" />

    
    <glyph glyph-name="task" unicode="&#59313;" d="M300.921776 151.272727H721.634954V421.885835H300.921776zM595.348837 325.908386h64.947146v-64.947146h-64.947146z m-122.677942 0h64.947146v-64.947146h-64.947146z m-122.677942 0h64.947146v-64.947146h-64.947146zM511.639183 896a511.639183 511.639183 0 1 1 511.639182-511.639183A511.639183 511.639183 0 0 1 511.639183 896z m292.983791-829.880197H216.490486v577.307963h188.346723v46.184637h63.503876v-49.792812h93.812544v46.184637h63.503876v-45.463002h179.687104z"  horiz-adv-x="1024" />

    
    <glyph glyph-name="approval" unicode="&#59314;" d="M511.639183 596.521494m-30.308669 0a30.308668 30.308668 0 1 1 60.617337 0 30.308668 30.308668 0 1 1-60.617337 0ZM511.639183 896a511.639183 511.639183 0 1 1 511.639182-511.639183A511.639183 511.639183 0 0 1 511.639183 896z m272.778012-754.108527a60.617336 60.617336 0 0 0-60.617336-60.617336H299.478506a60.617336 60.617336 0 0 0-60.617336 60.617336V566.212826a60.617336 60.617336 0 0 0 60.617336 60.617336h127.007752a90.926004 90.926004 0 0 0 171.027484 0H721.634954a60.617336 60.617336 0 0 0 60.617336-60.617336zM451.021846 287.661734L373.085271 366.319944l-43.298097-42.576463 121.234672-121.234672 242.469345 242.469345-42.576462 42.576462-199.892883-199.892882z"  horiz-adv-x="1024" />

    
    </font>
</defs>
</svg>
