<?xml version="1.0" standalone="no"?><!DOCTYPE svg PUBLIC "-//W3C//DTD SVG 1.1//EN" "http://www.w3.org/Graphics/SVG/1.1/DTD/svg11.dtd">
<svg t="1552544084890" class="icon" style="" viewBox="0 0 1497 1024" version="1.1" xmlns="http://www.w3.org/2000/svg"
     p-id="7791"
     width="292.3828125" height="200"><defs><style type="text/css"></style></defs><path d="M1099.634157 80.273293a44.535183 44.535183 0 0 1-28.920378 14.295244 20.673122 20.673122 0 0 0 4.948353 1.099635 48.93372 48.93372 0 0 1 20.453196 9.017c13.965354 10.996342 18.913707 167.804172 19.02367 167.804172 1.429524-13.745427 4.288573-150.210026 12.755757-160.65655a42.006025 42.006025 0 0 1 7.367549-7.147622 48.823757 48.823757 0 0 1 23.862061-9.566817 21.222939 21.222939 0 0 0-4.5085-1.429525 46.514525 46.514525 0 0 1-20.453196-8.797073c-14.295244-10.996342-18.36389-67.627501-20.123305-84.891757 0.439854 0-3.408866 66.63783-14.405207 80.273293zM991.979973 295.141808l373.875613 615.025384c38.597159 63.338927 32.109317 73.235635-31.449537 73.345598-130.856465 0-393.339138 0.549817-481.969651 0-83.572196-15.834732-147.021087-77.854098-177.700879-113.922099-10.996342-12.86572-16.604476-24.411878-8.247257-40.796427l187.817514-222.675917c43.985366-52.232622 72.685818-51.682805 106.004733 1.209598L1166.38195 934.689033c10.006671 14.625134 24.521842 13.415537 39.806757 13.415537h61.469549c20.783086 0 25.951366-18.36389 15.284915-34.968366L972.516448 431.606407c-40.466537-62.679147-67.29761-71.47622-122.939098-8.137293L373.875613 968.777692c-13.965354 16.054659 0.549817 26.06133 16.274586 30.679793a115.791477 115.791477 0 0 0 73.565525-1.429524C505.831712 984.062607 554.875396 951.293509 593.802445 919.843972c6.267915-5.168281 12.095976-7.367549 18.473854-0.769744 97.427586 98.967074 189.796855 100.506562 189.796855 100.506562H1451.517087c45.085-6.157951 57.180976-47.504196 35.40822-84.561866L989.670741 89.730147C942.056582 9.236927 914.345801 19.023671 859.144167 84.67183L349.243808 690.460287s-114.471916-34.748439-213.76888 0.769744C9.236927 736.754885-63.228964 908.077887 74.775123 997.917997c115.021733 74.885086 211.789539-27.270927 280.626637-107.764147 73.565525-86.101354 182.53927-218.60727 182.53927-218.60727l316.254783-381.463089c60.369915-72.795781 78.513879-92.369269 137.894123 5.16828zM278.427369 782.499666l-74.775123 90.829781C164.285343 921.05357 109.963416 980.873668 43.985366 917.094887c-48.713793-59.380244 9.566817-121.619538 65.97805-144.162038 58.720464-23.312244 141.632879-33.648805 167.584245-17.264256 13.635464 8.35722 9.126964 16.824403 0.879708 26.831073z" p-id="7792" fill="#fff"></path></svg>